<?xml version="1.0" encoding="UTF-8" standalone="no"?>
<!-- Created with Inkscape (http://www.inkscape.org/) -->

<svg
   width="178.31963mm"
   height="172.52209mm"
   viewBox="0 0 178.31963 172.52209"
   version="1.1"
   id="svg1"
   xml:space="preserve"
   xmlns:inkscape="http://www.inkscape.org/namespaces/inkscape"
   xmlns:sodipodi="http://sodipodi.sourceforge.net/DTD/sodipodi-0.dtd"
   xmlns="http://www.w3.org/2000/svg"
   xmlns:svg="http://www.w3.org/2000/svg"><sodipodi:namedview
     id="namedview1"
     pagecolor="#ffffff"
     bordercolor="#000000"
     borderopacity="0.25"
     inkscape:showpageshadow="2"
     inkscape:pageopacity="0.0"
     inkscape:pagecheckerboard="0"
     inkscape:deskcolor="#d1d1d1"
     inkscape:document-units="mm" /><defs
     id="defs1" /><g
     inkscape:label="Layer 1"
     inkscape:groupmode="layer"
     id="layer1"
     transform="translate(-309.76624,177.51222)"><path
       style="fill:#ffffff;stroke:none"
       d="m 424.06624,-162.98972 -5.02709,-4.23334 c 0.88853,1.90528 3.11704,2.68983 4.01836,4.49894 0.68092,1.36673 -0.32713,6.34798 -1.09161,7.67088 -1.98832,3.44063 -8.72068,5.30656 -12.18716,6.84364 -1.65397,0.7334 -4.21042,1.80657 -3.90526,4.00529 0.28468,2.05106 2.40171,4.43654 3.5827,6.08542 4.2724,5.96503 10.05873,6.19055 16.72672,6.35388 2.01944,0.0495 3.79315,0.55618 5.82083,0.14169 2.38353,-0.48723 3.44358,-2.38878 5.55727,-3.11172 4.44493,-1.52027 10.91737,2.3553 12.69898,6.40573 -3.21369,-3.68776 -6.85589,-6.08205 -11.90625,-6.08541 0.68704,1.35699 2.3684,2.13751 2.69178,3.70416 0.98621,4.77784 -4.65957,9.32943 -5.47949,13.75833 -0.39494,2.13329 -0.4041,4.3864 -1.45786,6.35 -1.05139,1.95918 -2.89008,3.30735 -4.48568,4.78598 -3.43401,3.18229 -7.00247,6.185254 -10.31874,9.501524 -8.08661,8.08661 -14.24087,17.13994 -21.13993,26.19375 -2.99597,3.93169 -6.97413,6.50811 -9.21856,11.1125 -3.13539,6.43212 -4.96365,13.26371 -5.84819,20.37292 -0.55614,4.46985 1.86714,8.17666 -2.95166,10.97245 -4.72702,2.74254 -9.62822,2.07246 -14.81666,2.56621 -6.9157,0.65813 -13.95618,0.0534 -20.90208,0.22355 -5.06866,0.12418 -10.01494,0.78987 -15.08125,0.78987 l 0.26458,0.52917 -14.55208,1.32291 v 0.52917 h 1.32291 v 0.26458 c -2.06145,0.26189 -5.51727,0.982 -6.61458,2.91042 l 15.08125,1.85208 -0.52917,0.52917 v 0.26458 l 15.08513,1.05344 15.60654,-0.52427 v 0.26458 l -0.79375,0.79375 5.55625,-0.79375 -0.26458,0.79375 5.02708,-0.79375 -0.26458,0.79375 11.64166,-1.85208 v 0.79375 c 4.01872,-0.99006 7.31396,-1.94676 11.37708,-0.79375 -0.68752,2.92162 1.23501,4.36131 3.96875,4.68492 2.48187,0.2938 5.18883,-0.52238 7.67292,-0.6925 4.01063,-0.27464 9.01068,-0.0429 12.96458,0.66841 3.83145,0.68933 7.31055,3.2724404 10.84792,0.89542 0.84278,1.4436604 5.2917,1.6751904 6.41818,0.43076 0.88027,-0.97244 0.31325,-2.55917 -0.0682,-3.60576 h 0.26458 l 1.32292,2.64583 c 3.69945,-1.45212 -1.52736,-6.8261 -3.175,-7.90891 -5.59033,-3.67394 -14.13977,-0.11776 -20.37292,-2.14525 v -0.26459 c 5.31509,-2.48449 9.17168,-6.50632 12.96459,-10.84791 -2.35918,4.965 -7.56488,6.87555 -10.84792,10.84791 4.97884,1.8646 10.72664,-0.49803 15.875,0.76721 2.9707,0.73007 3.80792,3.3308 6.17136,4.74168 2.32644,1.3888 6.76075,0.78504 9.43905,1.37437 1.16586,0.25652 2.466,1.02613 3.68763,0.70452 1.19018,-0.3133 0.86626,-1.62225 0.80375,-2.56069 -0.13005,-1.95198 -0.50507,-6.45001 -2.17034,-7.7011 -2.03896,-1.53182 -5.97619,0.0776 -8.40645,-0.50099 2.00222,-2.51504 6.30593,-4.34343 7.48019,-7.43221 0.7543,-1.98407 -0.56521,-5.61555 -0.97135,-7.64904 -1.16745,-5.84525 -2.62294,-11.62064 -3.81033,-17.4625 -0.65172,-3.20638 -1.01756,-6.06141 -4.5506,-6.87916 v -0.26459 h 1.85209 l -0.26459,-1.32291 c 3.06164,1.84607 3.61269,8.19118 4.39891,11.37708 1.71824,6.96264 3.14874,14.3063 3.99222,21.43125 0.2681,2.26472 -0.23967,4.62843 0.11473,6.87529 0.31722,2.01105 1.98956,3.82864 2.3633,6.08929 0.95511,5.77736 2.31906,15.7199404 10.56209,13.7583404 l -0.26458,-1.5875 c 1.44578,1.53275 7.0279,4.74498 7.67292,0.79375 l 0.79375,1.32291 c 7.54639,-2.29422 -2.50699,-9.8128704 -4.49792,-12.4354104 1.75535,-1.15143 -0.3503,-3.3129 -1.5875,-3.96875 l 1.32292,3.43958 h -0.26459 c -1.76014,-6.11024 -3.14338,-11.3626 -3.74907,-17.72708 -0.17834,-1.87377 -1.15064,-5.63451 -0.5655,-7.35953 0.47875,-1.41142 2.99741,-2.94073 4.04611,-4.01756 2.40601,-2.4705 3.82146,-5.88765 6.35388,-8.20208 0.39734,5.03434 1.35575,10.02662 1.57708,15.08125 0.13378,3.05511 -0.60671,6.24771 -0.20434,9.26042 0.17247,1.29133 1.06841,2.22858 1.4505,3.43958 0.56037,1.77596 0.493,3.73821 0.95218,5.55625 0.9791,3.87659 0.65819,8.77732 4.47259,11.37566 2.4352,1.6588304 4.79515,0.48986 7.36241,0.26601 l 0.52916,-1.5875 c 0.24568,0.65241 0.24568,1.66503 0.88071,2.07317 2.02898,1.3040904 5.87406,-1.23272 5.98008,-3.39609 0.2386,-4.86902 -4.39608,-4.82739 -7.38995,-6.61704 -1.6463,-0.98411 -2.63749,-2.67055 -3.06169,-4.49546 -0.92564,-3.98214 -0.28222,-8.37077 -0.38177,-12.43542 -0.2703,-11.03477 0.61461,-21.83289 1.9315,-32.80833 0.64158,-5.34715 3.0633,-10.99493 5.29779,-15.875 1.25984,-2.75144 3.10057,-5.68508 3.53247,-8.73125 0.3045,-2.14759 -0.91795,-4.86632 -1.58566,-6.879164 -1.14173,-3.4418 -1.47405,-6.57308 -3.35139,-9.78959 l 1.5875,1.05834 c -0.0629,-2.61233 -2.02057,-4.13275 -3.10539,-6.35 -0.76571,-1.56505 -0.70947,-3.41883 -1.39253,-5.02708 l 1.05833,0.26458 c -0.51289,-1.54682 -1.83383,-2.6673 -2.2902,-4.23333 -0.33094,-1.13561 0.0561,-2.30876 -0.25988,-3.43959 -0.45938,-1.64424 -1.45999,-3.08897 -1.90678,-4.7625 -1.58928,-5.95281 -2.50139,-11.65381 -5.41745,-17.19791 -2.10265,-3.99761 -5.09628,-7.2582 -8.08959,-10.58334 -1.04214,-1.15766 -1.49193,-2.69121 -2.6736,-3.70416 1.13877,4.78323 -2.82148,11.9436 -6.35101,15.00183 -2.585,2.23981 -5.17151,3.50618 -7.92588,0.84846 -4.74725,-4.58068 -2.46956,-12.86533 -2.94573,-18.76071 -0.16601,-2.0553 -1.35799,-3.84468 -1.82738,-5.82083 6.08119,6.73415 -1.41378,18.16675 5.07589,24.25469 2.82006,2.64549 6.57578,0.36456 8.51484,-2.29428 2.00235,-2.74561 4.19438,-6.12624 4.8072,-9.525 0.31133,-1.72672 -0.20923,-3.59698 0.20682,-5.29166 0.47942,-1.95289 2.17704,-3.02984 1.94272,-5.29167 -0.2722,-2.6275 -1.76316,-2.33705 -3.61413,-3.34752 -3.79459,-2.07151 -5.89693,-2.44672 -10.05417,-1.11874 -1.23494,0.39448 -3.74741,0.10756 -5.02708,-0.1472 -0.82192,-0.16364 -1.49629,-0.87792 -2.38125,-0.57429 -1.90346,0.65308 -2.94058,3.11522 -4.49894,4.28028 -4.50424,3.36748 -9.61398,4.64277 -12.43439,10.16789 m 4.26109,4.42177 c 1.9694,-0.57855 2.89102,3.15196 0.76089,3.696 -2.58386,0.65992 -2.52282,-3.17839 -0.76089,-3.696 m -0.0278,0.60531 c -1.036,3.54452 3.126,1.56375 0,0 m -18.78542,16.40417 c 1.37787,-2.46486 -0.35418,-2.53376 -2.38125,-3.175 3.0572,-2.0886 6.24403,2.03148 2.38125,3.175 m -1.32291,-1.85209 0.26458,1.05834 h -0.26458 v -1.05834 m 42.33333,15.08125 -0.26459,0.26459 0.26459,-0.26459 m 22.48958,29.368754 2.91042,5.29167 c -1.3412,-1.03513 -3.28386,-3.48623 -2.91042,-5.29167 m 3.43958,23.28333 c -1.96328,4.88257 -4.74683,12.9008 -10.31875,14.55208 l 5.09323,-5.55625 4.69636,-8.99583 h 0.52916 m -21.43125,7.40833 c -1.16937,5.05455 -1.85208,9.60715 -1.85208,14.81667 h -0.26458 c -0.52371,-4.14393 -1.12571,-11.58039 2.11666,-14.81667 m -28.04583,31.75 -3.96875,-5.29166 c 0.63417,2.66376 -0.0838,5.30546 -1.32291,7.67291 h -0.26459 c 0.60546,-2.64095 1.24886,-4.95142 0.6586,-7.67291 -1.19364,-5.50346 -7.48589,-10.33883 -13.09401,-10.58334 1.65002,-1.24359 4.97753,0.15106 6.61458,1.00117 5.29922,2.75184 9.26323,9.43308 11.37708,14.87383 m 27.51667,-8.46666 v 0.79375 h -0.26459 l 0.26459,-0.79375 m 4.93889,26.63472 -0.0882,0.17638 0.0882,-0.17638 m -30.33889,4.32153 -0.26459,0.26458 z"
       id="path1" /></g></svg>
