<svg width="130" height="52" viewBox="0 0 130 52" fill="none" xmlns="http://www.w3.org/2000/svg">
<g clip-path="url(#clip0_52_71)">
<path d="M93.6755 4.13668V4.31273L95.071 3.60851L93.6755 4.84091L93.8499 4.4888L92.6288 5.36908C89.2473 4.64507 85.2558 5.69244 81.8134 5.72119V5.89725L87.3955 6.24936V6.42542C86.4036 6.61306 85.0152 6.57279 84.43 7.48176C83.6783 7.24268 82.3402 7.69591 82.1623 8.5381H80.5923L80.4178 8.89021V9.59444L81.9878 10.2987C84.2238 9.04332 85.3389 10.7075 87.2236 11.6078C88.1757 12.0625 89.164 12.0101 90.1866 12.0592L88.6166 13.8198C87.0664 12.5709 84.9121 13.0702 83.2322 12.17C82.373 11.7095 82.4787 10.3666 81.2875 10.3555C80.2101 10.3454 79.6777 11.5242 78.6709 11.6812C77.2216 11.9071 74.8511 10.9493 74.1379 12.7635L75.1846 13.4677L74.8357 14.348C74.0547 13.7911 73.1898 13.241 72.2191 13.4677L72.0446 14.348L67.858 13.1156L67.5091 11.8832L70.3002 11.355H70.4746L71.3469 11.0029V10.4747L67.1602 10.5109L61.927 9.59443V9.41838L63.1481 9.06626C63.2444 8.32199 64.6066 8.3728 65.2414 8.36203V8.18598L54.6004 9.02061L38.9006 7.48175V7.65781L48.8438 9.41838C47.504 10.589 44.6359 9.03978 43.6105 10.4747L46.0527 11.0029L47.7972 11.8832V12.0592L31.7485 9.77049C31.7485 10.4687 30.8085 10.1126 30.3529 9.94655C29.2283 9.53667 27.0665 8.64758 25.9919 9.24232C25.8339 8.23384 22.3674 8.46147 21.9797 9.41838L21.6308 9.06626H18.142L18.3164 8.71415C16.6226 7.47022 14.0393 7.34198 12.0365 6.86121C9.42969 6.23545 6.97967 4.9719 4.36105 4.32496C3.5323 4.12021 1.02731 5.23248 1.74442 6.24936C1.32098 6.86915 1.21826 7.26268 1.91886 7.65781C1.41859 8.93738 2.55351 9.45231 3.48885 10.1226H3.66328L4.18661 9.94655L4.01217 9.24232L5.75659 9.41838L4.88439 9.77049L5.05882 10.4747L5.75659 10.2987L5.58215 11.0029L6.10548 10.4747L7.67545 11.1789C7.20513 11.353 7.0989 11.6366 7.67545 11.7071V11.8832L7.32656 12.0592L9.24544 12.7635L9.07099 12.2353L9.76876 12.4113V12.5874L9.41987 12.9395L10.1177 12.7635H10.2921V13.4677L10.8154 12.7635L12.7343 14.7001L13.432 14.348L13.7809 15.4043L14.3043 15.2282L15.002 15.5804L14.6531 14.8761L15.1765 14.7001L15.5254 16.1085L15.8742 15.7564H16.0487L16.2231 16.2846L16.9209 16.8128L17.4442 16.6367C17.6105 17.235 18.1465 17.613 18.3164 16.8128L18.8398 17.1649L18.4909 17.693L19.3631 17.517L20.2353 18.5733V17.693H20.4097C20.7891 18.5804 21.623 18.9803 22.503 19.2776V19.1015H22.1542V18.9254L28.7829 22.2705C28.9739 23.3095 30.4203 24.1296 31.2252 24.7551C33.1466 26.2486 35.1872 27.8583 36.6328 29.841L35.9351 30.1931C35.2593 28.5823 33.7505 27.5927 32.4463 26.5303C30.0119 24.5473 27.3896 21.8196 24.4219 20.686V20.8621L31.3996 26.1438L35.2373 29.6649L30.1785 26.0169L28.2596 24.2071L21.8053 19.8057L24.7708 22.1404L36.3338 31.2336L39.7728 34.2424C34.9782 31.989 31.5641 26.6043 26.5152 24.7353L26.8641 24.3832L18.4909 18.2212L26.5152 24.5593L17.2698 17.6931C18.7786 21.0175 23.2591 22.8862 26.1663 24.7447C30.8031 27.7089 34.5573 31.643 38.9006 34.9466L36.4584 34.0663C36.2753 33.1903 33.8244 31.8886 32.9694 31.5302C30.4537 30.4758 27.3601 28.6408 25.4686 26.6719L22.6775 24.8623L16.2394 19.1015L12.9087 15.5804C15.3918 19.138 18.6358 21.8373 21.624 24.9139C24.0674 27.4297 26.6693 30.7358 30.1785 31.7776V31.9536C25.2091 30.5088 21.1511 25.099 17.4442 21.7125C16.5109 20.8598 14.9317 18.2964 13.7809 18.0452L13.2576 17.517L13.432 17.1649L9.76876 14.348C11.1258 16.7174 13.6158 18.7588 15.5254 20.686C18.7966 23.9876 21.9859 27.4745 25.4686 30.5452C23.787 29.6648 22.5812 28.0148 21.2663 26.6877C18.9176 24.3173 16.3236 22.0227 13.7816 19.8631C12.5164 18.7881 10.0416 17.2442 9.59432 15.5804C8.23139 14.9426 7.16029 13.6092 6.27991 12.4113H6.10548C6.54925 13.5674 7.52648 14.3178 8.32342 15.2283C10.9987 18.2845 15.0954 20.8405 17.0953 24.3832L10.6995 18.7494L9.24544 16.9888L4.01217 12.0592L11.3387 20.8621L7.8499 17.7615L6.45436 16.2846C6.07102 16.2846 5.52082 15.5754 5.17512 15.2576C4.11945 14.2873 2.35591 12.3441 2.79108 10.8268C1.98501 11.5386 2.87457 12.9267 3.33015 13.6437C4.77916 15.9243 6.9388 17.657 8.37322 19.9818L4.36105 15.5804L3.3144 14.348C2.27821 14.1054 1.40369 11.4487 1.56997 10.4747L1.39554 13.1156H1.56997V12.7635H1.74442L1.91886 13.6437L1.56997 13.4677L2.44219 15.2283H2.26775L0.34888 11.7071L1.04665 14.348H0.872214L0.174445 12.2353H0C0.416762 17.053 5.0163 20.7855 8.002 24.0337C9.25657 25.3985 10.5968 27.4403 12.5598 27.7283V27.9043L12.2109 28.0804C13.9263 29.8116 15.6123 31.6765 17.6187 33.0764C20.5966 35.1543 24.1593 36.4725 27.3874 38.1004C29.0028 38.915 30.7562 39.5102 32.4463 40.1535C33.1233 40.4111 34.1027 40.5446 34.565 41.1575C35.1998 41.9992 35.3607 43.4678 35.7625 44.4537C36.6358 46.596 37.7673 48.6239 39.4265 50.2565C40.1891 51.0068 41.714 52.2797 42.8894 51.945C43.7266 51.7066 43.4755 50.5658 43.4072 49.9114C43.1708 47.6489 43.6147 45.4751 43.785 43.2213C46.0414 43.2273 48.3423 43.6799 50.5882 43.8956C51.2924 43.9632 52.3417 43.7062 52.9623 44.1064C53.7632 44.6229 54.1906 46.2798 54.6789 47.0945C55.9875 49.2782 57.9281 50.946 60.5314 50.9678L58.9614 47.9748C57.8292 47.8255 57.1435 44.9356 57.0426 43.9255C58.9624 43.7726 60.88 43.7403 62.7992 43.5602C63.6723 43.4783 64.7251 43.1279 65.5903 43.3405C67.5356 43.8187 69.3773 45.6165 71.1724 46.5229C75.1007 48.5065 79.3282 49.9779 83.7322 50.4097C87.4557 50.7748 91.1963 50.8917 94.8965 50.2777C96.141 50.0712 97.8672 49.9248 98.8802 49.0843C100.205 47.9851 96.2413 46.607 95.4199 46.7424L93.501 45.334H93.3266L90.7031 44.7801L86.3489 44.8058L86.5233 44.2776L86.3489 44.1016L85.1278 44.6297L84.9534 43.7494C83.9421 43.9139 83.0633 43.9559 82.1623 43.3973L81.6389 44.1016L81.4645 43.5734L80.4178 42.8692L78.3245 42.517H78.1501L77.2779 42.341C76.7633 42.5141 76.6461 42.6028 76.7546 42.1649L75.359 42.517L74.6612 41.9889L74.8357 42.517C73.9513 41.7582 71.9827 41.224 70.998 41.9889L71.1724 41.2846L69.6024 41.4607L68.3813 41.1086L68.5558 40.5804L67.1602 39.7001C66.2263 39.5907 65.729 39.166 65.0669 40.0523L64.718 39.348C62.4801 40.2037 62.7999 36.8224 60.5314 37.0593L58.787 34.2424V33.3621L56.3448 32.6579V32.4818C57.2587 32.4818 59.138 32.8254 58.9614 33.5382C59.9691 33.5179 60.9654 34.1036 61.2292 35.1227L62.8573 36.267L64.0203 36.2377L65.4158 37.4114L65.2414 36.8832H65.9391V37.5875C67.4505 36.533 70.2855 38.9972 71.6957 39.7463C74.0102 40.9758 75.7874 40.551 78.1501 39.7246C88.5133 36.0997 95.4974 27.8924 104.665 22.3409C107.762 20.466 113.37 18.126 116.644 21.1883C117.562 22.0471 115.346 25.1969 114.726 25.9677C112.452 28.7972 109.247 35.6885 113.039 38.6438C113.143 35.0783 117.876 34.8384 120.016 33.186L120.191 33.8902H119.842L121.586 36.5311L122.284 36.179L121.935 36.7071C122.678 38.6422 124.607 39.9826 125.59 41.8128C125.826 42.2521 126.191 43.5739 126.819 43.0452C130.128 44.0272 130.076 39.0154 129.964 37.0593C129.92 36.2958 130.152 34.6109 129.262 34.4184L129.611 33.8902C128.75 30.8077 127.557 27.7734 125.517 25.2635C124.436 23.9332 122.817 23.1798 121.883 21.7416C120.972 20.3404 119.832 16.8989 117.923 16.8127C117.3 15.4638 115.9 14.3943 114.783 13.4535C111.59 10.7636 107.846 8.97054 103.968 7.52194C102.372 6.92618 98.6494 6.52578 99.6325 3.9606C100.884 0.69393 105.288 2.76379 106.584 0.263411C101.277 -0.731565 97.9284 1.20785 93.6755 4.13668ZM5.23327 3.78454V3.9606H6.10548L5.23327 3.78454ZM3.83773 4.3714C3.97263 4.3714 3.86568 4.45904 3.77958 4.43009L3.83773 4.3714ZM2.79108 5.07563C2.92598 5.07563 2.81904 5.16327 2.73293 5.13432L2.79108 5.07563ZM80.4178 5.89722V6.07328H81.29L80.4178 5.89722ZM91.0588 6.24934L91.4077 7.30568L90.8844 6.7775L90.7099 7.30568L89.8377 6.60145L88.6166 6.24934H91.0588ZM2.44219 6.24934H2.61663H2.79108V6.42539H2.26775L2.44219 6.24934ZM36.1095 6.95356V7.12962H36.6328L36.1095 6.95356ZM36.8073 7.12962V7.30568L38.7262 7.48173L36.8073 7.12962ZM92.6288 7.65779V7.83385L91.5821 7.65779H92.6288ZM2.61663 7.65779L2.26775 8.53807C3.0853 8.77413 3.67956 8.83629 3.83773 9.77047L2.79108 8.89019C2.04999 9.46247 2.29596 8.03483 2.61663 7.65779ZM3.3144 7.65779V8.18596H3.13996L3.3144 7.65779ZM97.1643 8.0099V8.36201H96.8154V8.0099H97.1643ZM19.0142 8.18596V8.36201L20.0608 8.71413L19.0142 8.18596ZM96.8154 9.06624L96.4665 8.53807H96.2921V9.06624H96.1176L95.9432 8.18596L96.8154 9.06624ZM98.9087 8.71413L102.049 9.94653L101.874 9.59441H102.049L104.316 10.4747V10.6508C102.066 10.4712 100.624 10.0345 98.7343 8.89019L98.9087 8.71413ZM17.9675 8.89019V9.06624H17.2698L17.9675 8.89019ZM109.201 9.94653L109.026 10.2986C109.977 10.524 111.54 11.1619 111.643 12.2353L112.515 12.9395C110.818 12.2904 107.794 10.78 106.584 9.41836L109.201 9.94653ZM97.1643 9.41836V9.77047H96.8154L97.1643 9.41836ZM22.3286 9.77047C25.13 11.0852 28.2498 10.7204 31.2252 11.0372C33.3023 11.2584 35.3293 12.036 37.3306 12.5824C39.4201 13.1528 41.6295 13.4184 43.6105 14.3479V14.524C41.33 14.5428 39.4102 13.946 37.1562 13.5072C35.5485 13.1942 33.8485 13.3326 32.2718 13.0306C30.6982 12.7293 29.1516 12.0214 27.5619 11.6701C26.3854 11.4102 22.7041 11.0931 22.3286 9.77047ZM4.18661 10.1226V10.4747H4.5355V10.1226H4.18661ZM71.6957 10.4747V11.1789L74.6612 10.4747H71.6957ZM7.50102 10.3573C7.63593 10.3573 7.52897 10.445 7.44286 10.416L7.50102 10.3573ZM68.2069 10.8268V11.355H68.0324L68.2069 10.8268ZM6.45436 11.1789V11.531H6.80324V11.1789H6.45436ZM92.6288 11.1789C92.3598 12.0168 91.6763 12.0421 90.8844 12.0592L92.6288 11.1789ZM7.67545 11.355L8.02434 11.8832H7.8499L7.50102 11.531L7.67545 11.355ZM29.8296 18.9254L20.5842 13.4677V13.8198L15.002 11.7071C16.1236 11.2456 17.7649 12.0782 18.8398 12.4655C21.8187 13.539 24.2278 14.9483 26.8641 16.6905C27.8161 17.3196 29.23 17.9352 29.8296 18.9254ZM9.24544 11.7071L9.07099 12.2353L8.89655 12.2353L9.24544 11.7071ZM13.6065 11.8832L13.7809 12.4113H13.0832L13.6065 11.8832ZM8.02434 12.2353L7.8499 12.5874H8.19878L8.02434 12.2353ZM74.8357 12.294C74.9706 12.294 74.8636 12.3816 74.7775 12.3526L74.8357 12.294ZM91.7566 12.294L91.8148 12.3526C91.7286 12.3816 91.6217 12.294 91.7566 12.294ZM21.9797 13.1742C22.1146 13.1742 22.0077 13.2619 21.9216 13.2329L21.9797 13.1742ZM16.572 13.8785L16.6302 13.9372C16.5441 13.9661 16.4371 13.8785 16.572 13.8785ZM23.5497 13.8198C24.9158 14.3969 26.4464 15.294 27.3874 16.4606L24.4219 14.8761L23.3753 13.9959L23.5497 13.8198ZM1.22109 14.348L2.79108 16.8128C2.1208 16.2656 1.0872 15.2803 1.22109 14.348ZM26.3408 14.8761L26.6897 15.0522V15.2282L26.3408 14.8761ZM27.0385 15.2282L28.0852 15.9325V16.1085L27.5619 15.9325L27.7363 16.2846H27.5619L26.8641 15.7564L27.0385 15.2282ZM4.18661 15.5804L4.88439 16.8128H4.70993L4.18661 15.5804ZM38.0284 15.9325V16.1085H37.5051L38.0284 15.9325ZM41.8661 16.9888V17.1649L38.3773 16.4606C39.4333 15.8534 40.8936 16.4309 41.8661 16.9888ZM17.6187 16.5193C17.7536 16.5193 17.6466 16.607 17.5605 16.578L17.6187 16.5193ZM41.5172 17.1649V17.3409L38.9006 16.8128L41.5172 17.1649ZM15.3509 16.8128C17.9252 21.3727 22.7312 23.4895 26.6897 26.5374C29.0354 28.3437 31.7971 31.0315 34.714 31.7776L30.1786 28.6041L26.5152 25.6251L20.7586 22.0191L15.3509 16.8128ZM29.3063 16.8128L30.5274 17.693V17.8691L29.3063 16.8128ZM118.272 16.8128L120.888 21.0381H120.714L118.272 16.8128ZM28.2596 16.9888L36.6328 22.6226V22.7987C34.2949 22.052 32.3546 20.0707 30.3529 18.7045C29.6892 18.2516 28.484 17.8072 28.2596 16.9888ZM39.4239 16.9888V17.1649H38.3773L39.4239 16.9888ZM39.7728 17.2236C39.9077 17.2236 39.8008 17.3112 39.7147 17.2823L39.7728 17.2236ZM4.70993 17.3409L5.75659 18.5733L4.88439 18.2212L4.70993 17.3409ZM38.9006 17.5757C39.0355 17.5757 38.9286 17.6633 38.8425 17.6344L38.9006 17.5757ZM41.3428 18.2212L41.1684 19.1015L39.5984 18.0452L38.9006 18.2212V18.0452L40.2962 17.8691V17.6931H39.4239C40.1641 17.3885 40.82 17.6502 41.3428 18.2212ZM70.1258 17.517L71.6957 18.9254C70.8588 18.905 69.6833 18.608 70.1258 17.517ZM40.2962 17.8691V18.0452L40.9939 18.2212V18.0452L40.2962 17.8691ZM58.2637 17.8691L60.357 19.6297L57.9148 18.9254L57.7404 18.2212L58.4381 18.5733L58.2637 17.8691ZM3.48885 18.7494L4.88439 19.9818V20.1578L3.48885 18.7494ZM40.4706 19.2776L40.9939 19.8057L40.2962 19.4536L40.4706 19.2776ZM21.1075 19.4536V19.6297L21.6308 19.8057L21.1075 19.4536ZM6.10548 19.6297L8.19878 22.6226H8.02434L6.10548 19.6297ZM44.4827 20.51L45.7039 21.2142V21.3902L44.3083 20.686L44.4827 20.51ZM45.355 21.5663L45.0061 21.7424V21.9184L45.8783 22.6226L43.4361 22.0945V21.9184L45.0061 21.7424V21.5663L43.4361 21.2142L45.355 21.5663ZM28.9574 22.4466C31.6777 23.3754 34.7515 24.3676 37.1562 25.9862C38.6114 26.9657 39.3085 28.6652 40.6452 29.7831C42.7616 31.5531 46.0193 33.016 48.4949 34.2424V34.4184C46.5676 34.0425 45.0005 33.0941 43.2617 32.3938C42.8874 32.243 41.7443 31.5763 42.215 31.2494V31.0734L41.1684 31.4255C40.1805 30.6336 37.6567 28.485 37.6795 27.2001L37.1562 27.3762L36.1095 26.3492L31.9229 23.855V24.0311C35.7852 25.8536 38.6809 29.7163 41.8661 32.4818L41.6917 31.9536L42.5639 32.4818L41.3428 33.3621L37.6795 30.017C37.4124 29.131 36.0696 28.7214 35.4186 28.0728C33.3843 26.0461 31.3018 24.071 28.7829 22.6226L28.9574 22.4466ZM7.67545 22.7987V23.1508L7.32656 22.7987H7.67545ZM33.144 23.1508C35.342 23.6087 37.709 24.2892 39.4164 25.8446C40.8036 27.1083 41.5063 28.8611 43.0872 29.9801C45.7344 31.8537 49.5314 33.0862 51.4604 35.8269L46.0534 32.4993L43.9594 30.7212H43.785L43.6105 31.0734L43.2617 30.3691H41.8661L40.8195 29.4888V29.3128L41.1684 28.7846L40.9939 28.6086L40.645 28.7846C39.1174 26.2837 35.7469 24.1381 32.9696 23.3269L33.144 23.1508ZM48.4949 25.9677L46.5761 24.7353V24.5593L47.0994 24.3832L45.7039 23.855C46.8883 23.4673 47.9209 25.1204 48.4949 25.9677ZM45.8783 24.0898C46.0132 24.0898 45.9062 24.1774 45.8201 24.1485L45.8783 24.0898ZM76.929 24.3832V24.5593H76.4057L76.929 24.3832ZM94.5477 24.3832V24.7353H94.1988L94.5477 24.3832ZM46.0527 24.618C46.1876 24.618 46.0807 24.7056 45.9946 24.6766L46.0527 24.618ZM22.1542 24.7353C24.4878 26.653 26.8038 28.7807 29.4807 30.2125C30.7218 30.8763 32.5323 31.1191 32.9696 32.6579L34.5396 33.7142L31.2252 31.9536L31.3996 31.6015H31.2252C29.849 31.5632 28.939 30.5001 27.9082 29.7063C26.5919 28.6928 25.1307 27.956 23.896 26.8174C23.2857 26.2546 22.3524 25.5606 22.1542 24.7353ZM40.2962 24.9114L41.1684 25.6156L40.1217 25.0874L40.2962 24.9114ZM41.6917 25.4395V25.9677L41.3428 25.4395H41.6917ZM52.1582 33.5382V33.7142C50.0926 32.742 50.2832 30.5864 48.8065 29.242C46.9016 27.5078 43.683 27.3634 42.0406 25.6156C44.244 25.6216 47.2306 25.7503 48.7622 27.5593C50.2681 29.3378 50.436 31.99 52.1582 33.5382ZM44.4827 26.1438V26.3198H45.0061L44.4827 26.1438ZM76.4057 26.1438V27.0241H76.0568L75.8823 26.3198L76.4057 26.1438ZM73.0913 26.3198V26.6719H72.7424V26.3198H73.0913ZM41.5172 26.6719L43.2773 28.8483L46.7505 30.8119L50.4138 34.0663V34.2424C48.0076 33.2211 44.957 31.1009 43.009 29.3328C42.3132 28.7012 41.4392 27.6657 41.5172 26.6719ZM42.5639 26.6719C45.0527 27.4679 48.768 28.1242 49.3671 31.2494H49.1927C48.5082 29.6104 45.8201 28.6164 44.3083 27.8889C43.8274 27.6574 42.4582 27.2738 42.5639 26.6719ZM49.1927 26.6719L52.3326 30.3691C51.3682 29.669 49.4695 27.8244 49.1927 26.6719ZM87.9189 26.9067L87.977 26.9654C87.8909 26.9943 87.784 26.9067 87.9189 26.9067ZM70.8235 27.0241L70.3002 27.5522L70.4746 27.0241H70.8235ZM60.5314 27.2588C60.6663 27.2588 60.5594 27.3465 60.4733 27.3175L60.5314 27.2588ZM89.6633 27.7283V28.0804L89.3144 27.7283H89.6633ZM86 27.963C86.1349 27.963 86.028 28.0507 85.9418 28.0217L86 27.963ZM49.8905 33.01H49.716C48.0744 30.893 45.2069 29.5223 42.9128 28.2565C45.2993 27.3167 49.205 30.971 49.8905 33.01ZM87.3955 28.2565L87.2211 28.7846H87.0466L87.3955 28.2565ZM54.7749 28.6673C54.9098 28.6673 54.8028 28.7549 54.7167 28.726L54.7749 28.6673ZM78.3245 29.3128L78.1501 30.3692L77.6268 30.1931V29.1368L78.3245 29.3128ZM36.8073 29.841C38.2677 31.2036 39.9568 32.9531 41.6924 33.9256C44.582 35.5449 48.7713 36.1332 51.9838 36.8832V37.0593L43.9594 35.5619L40.4706 34.0663L40.645 33.5382C39.3969 32.9811 35.9274 31.6262 36.8073 29.841ZM25.643 30.5452L25.9919 30.7213V30.8973L25.643 30.5452ZM55.9959 30.956L56.0541 31.0147C55.968 31.0436 55.861 30.956 55.9959 30.956ZM84.9534 30.8973V31.4255H84.7789L84.9534 30.8973ZM56.5193 31.0734L57.7404 31.9537L56.3448 31.2494L56.5193 31.0734ZM77.6268 31.0734L77.9757 31.4255V31.6015L77.4523 31.9537L77.6268 31.0734ZM75.359 31.2494L75.7079 31.7776V31.9537L74.6612 32.6579L75.359 31.2494ZM114.957 31.6015C115.304 32.5502 114.921 33.1357 113.911 33.186L114.609 32.8339L114.957 31.6015ZM33.4929 31.7776L33.6673 32.3058H33.4929V31.7776ZM30.3529 31.9537C31.1999 32.2004 32.0113 32.5619 32.4463 33.3621C31.8529 33.2459 31.3641 33.1063 31.2252 32.4818L30.1785 32.1297L30.3529 31.9537ZM88.0933 31.9537L86.3489 32.8339V32.6579L88.0933 31.9537ZM80.7667 32.1297V32.3058L80.069 32.4818L80.7667 32.1297ZM29.3063 32.4818L33.4929 34.9466V35.1227L32.4463 34.9466C31.8628 33.9839 29.2699 33.8996 29.3063 32.4818ZM77.4523 32.4818V32.6579L76.929 32.8339L77.4523 32.4818ZM42.9128 32.6579C45.2605 34.1481 49.2525 33.9628 50.9371 36.179L50.4138 35.6508C48.7812 36.251 45.7799 34.8899 44.1339 34.4184C44.1188 33.6074 43.6412 33.3778 42.9128 33.186V33.3621H43.2617V33.5382C42.7616 33.431 42.6601 33.092 42.9128 32.6579ZM76.929 33.01L76.4057 34.2424H76.2312L76.0568 33.5382L76.929 33.01ZM116.353 33.186V33.7142H116.178L116.353 33.186ZM37.1562 36.3551L35.0629 35.8269L32.4463 33.7142C33.2904 33.3027 36.5659 35.6139 37.1562 36.3551ZM75.5335 33.5382C75.12 34.2588 74.7212 33.9301 74.1379 33.5382H75.5335ZM38.2028 36.179L37.3306 35.2987C36.6672 35.2501 36.0877 35.1237 35.9351 34.4184L35.2373 34.5945L34.5396 34.0663C35.6378 33.3648 38.0151 35.0074 38.2028 36.179ZM36.284 33.7729C36.4189 33.7729 36.3119 33.8606 36.2258 33.8316L36.284 33.7729ZM79.0223 33.8903L79.5456 35.2987L79.0223 35.4748L78.3245 35.2987L79.0223 33.8903ZM40.1217 34.4184L40.9939 35.2987C40.4786 35.1535 40.0898 35.0079 40.1217 34.4184ZM51.8093 34.4184L52.3326 34.7705V34.9466L51.8093 34.4184ZM116.178 34.4771C116.313 34.4771 116.206 34.5648 116.12 34.5358L116.178 34.4771ZM46.5761 34.7705L47.7972 35.1227V34.7705H46.5761ZM76.7546 35.1227V35.4748L74.4868 36.5311V36.3551L76.0568 34.9466L76.7546 35.1227ZM40.4706 35.8269V36.0029C39.8078 35.9019 39.3071 35.7955 39.0751 35.1227L40.4706 35.8269ZM50.4138 37.2353C49.7863 37.8746 49.146 37.6104 48.3205 37.59C46.6931 37.5499 43.5856 37.0365 42.3894 35.8269L47.0994 36.9421L50.4138 37.2353ZM73.9635 35.8269L74.1379 36.5311L73.4401 36.0029L73.9635 35.8269ZM37.1562 36.5898C37.2911 36.5898 37.1841 36.6775 37.098 36.6485L37.1562 36.5898ZM40.8195 37.0593L41.1684 37.2354V37.4114L40.8195 37.0593ZM126.819 37.0593V37.4114H126.471V37.0593H126.819ZM50.9371 37.2354L51.6349 37.5875V37.7635L50.9371 37.2354ZM36.1095 37.4114L36.6328 37.5875V37.7635L35.9351 37.5875L36.1095 37.4114ZM44.3083 37.4114V37.5875H43.785L44.3083 37.4114ZM76.7546 37.6462L76.8127 37.7048C76.7266 37.7338 76.6197 37.6462 76.7546 37.6462ZM45.355 37.7635L49.716 38.1156V38.8199C48.7468 38.8199 45.5723 39.0657 45.355 37.7635ZM73.0913 37.7635V37.9396L72.3935 38.2917V38.1156L73.0913 37.7635ZM75.8823 37.9396V38.1156L73.4401 38.6438L75.8823 37.9396ZM50.2393 38.2917L49.8905 38.6438V38.2917H50.2393ZM46.925 39.172V39.348H46.4016L46.925 39.172ZM51.286 39.5241V39.7001H47.0994V39.348L51.286 39.5241ZM65.4158 40.9325V41.2847L64.0203 41.6368C64.3459 41.0576 64.7693 40.7877 65.4158 40.9325ZM69.9513 41.8128V42.1649H69.6024V41.8128H69.9513ZM72.0446 42.3997L72.1028 42.4584C72.0167 42.4873 71.9097 42.3997 72.0446 42.3997ZM76.4057 42.7518L76.4638 42.8105C76.3777 42.8394 76.2708 42.7518 76.4057 42.7518ZM80.4178 43.3973V43.7494H80.069L80.4178 43.3973ZM73.6146 43.8081L73.6727 43.8668C73.5867 43.8958 73.4797 43.8081 73.6146 43.8081ZM84.2556 44.1016V44.4537H83.9067V44.1016H84.2556ZM79.8945 44.4537V44.8058H79.5456V44.4537H79.8945ZM83.3834 45.0405C83.5183 45.0405 83.4113 45.1282 83.3252 45.0992L83.3834 45.0405ZM71.8702 45.51H71.3469L71.5213 45.1579L71.8702 45.51ZM78.499 45.2166C78.6339 45.2166 78.5269 45.3042 78.4408 45.2753L78.499 45.2166ZM84.9534 45.1579C84.8521 45.7723 84.7022 45.9585 84.0811 45.8621L84.9534 45.1579ZM83.2089 45.334L82.86 45.8621V45.334H83.2089ZM92.2799 45.334V45.6861L91.931 45.334H92.2799ZM94.1988 45.8621L94.3732 46.2142H94.0243L94.1988 45.8621ZM78.1501 46.2142V46.5663H77.8012V46.2142H78.1501ZM83.9067 46.3903V46.7424H83.5578V46.3903H83.9067ZM86.8722 46.7424V46.9185L86.3489 47.0945L86.8722 46.7424ZM91.5821 46.7424L91.4077 47.4466L90.8844 47.2706V46.9185L91.5821 46.7424ZM87.7444 47.0945L87.3955 47.4466V47.0945H87.7444ZM85.3022 47.2706V47.7987H85.1278L85.3022 47.2706ZM90.1866 47.4466L90.0122 48.1509H89.6633L89.4888 47.4466H90.1866ZM77.1035 48.0335L77.1616 48.0922C77.0755 48.1211 76.9685 48.0335 77.1035 48.0335ZM77.4523 48.7377C77.5872 48.7377 77.4803 48.8254 77.3942 48.7964L77.4523 48.7377ZM91.2333 49.0898C91.3682 49.0898 91.2612 49.1775 91.1751 49.1485L91.2333 49.0898ZM94.3732 49.3833L94.5477 49.7354H94.1988L94.3732 49.3833ZM84.2556 49.9114V50.2635L83.9067 49.9114H84.2556Z" fill="white"/>
</g>
<defs>
<clipPath id="clip0_52_71">
<rect width="130" height="52" fill="white"/>
</clipPath>
</defs>
</svg>
