<svg width="60" height="84" viewBox="0 0 60 84" fill="none" xmlns="http://www.w3.org/2000/svg">
<g clip-path="url(#clip0_52_74)">
<path d="M37.5398 0L35.9676 1.72308C35.5525 0.816575 34.9289 0.461761 33.9461 0.215388V0.646151L32.5985 0.430763L32.1493 1.07691L32.3739 1.72308L29.9033 1.93847C30.0986 0.656107 29.1063 0.681684 28.1065 1.07691V0.215388H26.5343L26.085 2.15384C25.0448 2.32045 24.9593 2.80709 25.4112 3.66153L23.381 2.54507L21.2819 3.16978L19.5716 2.36923L19.7962 3.23077H18.224L18.8978 1.93847L17.9994 1.50769C17.6163 2.28891 16.6875 3.47105 18.224 3.44616L18.4486 4.09231L19.5716 3.66153L19.1224 4.52308C20.0694 5.07565 20.7838 6.28001 22.0415 6.00734C22.8039 5.84205 23.3136 5.1547 24.0804 5.03062C25.3417 4.82656 26.3372 5.9276 26.9835 4.30768C26.1605 4.48919 25.8959 4.31094 25.4112 3.66153L26.7589 4.09231L26.3097 3.66153V3.44616L28.7803 2.58462L29.0049 3.23077L28.1065 3.44616L28.7803 4.95385L29.9033 4.30768L31.0263 5.81539L27.2081 6.03078L29.2295 7.32308L26.5343 8.18462V7.96923L27.4327 7.10769C26.5406 7.04086 25.7318 6.74131 25.1867 7.53845H24.5128C23.8718 6.36749 22.0816 6.11261 21.593 7.53845L20.47 7.10769L19.1224 7.32308V7.10769L20.0208 5.6L17.3256 5.38461L17.9994 6.46154L15.0795 4.95385H15.9779L14.8549 3.66153H14.6303L13.2827 5.38461L12.1597 5.16924L10.8121 6.67693C11.4197 7.67499 12.1522 7.78677 13.2827 7.53845C12.2141 9.75578 10.2379 6.38102 8.79068 7.96923L8.34147 7.75385L5.87083 12.7077L4.74782 11.8462C3.82188 12.5501 3.20444 13.7974 4.29861 14.6462V14.8615V15.0769L3.62479 17.0154V17.2308L4.07401 17.8769H3.62479V18.3077L3.84943 18.5231L4.29861 18.0923H4.52322H6.54464L4.97243 19.8154L5.87083 19.1692H6.09543C7.31798 19.7952 8.22832 17.7367 8.56607 16.8C9.6216 17.091 10.1351 16.9396 11.0367 16.3692L10.8121 17.0154L11.0367 17.2308C11.4406 17.0497 11.9593 16.8928 11.4859 16.5846V16.3692L13.5073 16.5846V16.8L13.0581 17.2308L16.6518 17.4462L17.3256 17.8769L16.6518 17.0154L18.8978 17.6615C18.0611 17.5837 17.7454 17.8342 17.3256 18.5231L16.8764 18.0923H16.6518C15.6563 19.0898 13.9792 20.5155 15.7533 21.5385V21.9692L13.0581 23.6923L13.5073 22.4L12.8335 23.0462L11.7105 22.4L12.8335 21.5385L9.23986 20.6769L8.79068 22.1846H7.66765L7.44304 21.5385H7.21846C7.08941 22.0545 7.11173 22.0741 7.66765 22.1846V22.4L7.21846 22.8308L5.64622 23.2615L5.87083 24.9846C4.02536 25.2735 4.3831 27.5946 3.54752 28.8574C3.07838 29.5664 2.40388 30.1106 1.828 29.2923L2.7264 29.5077L2.951 29.2923L2.50179 28.2154C0.866512 28.8547 0.994177 30.0351 1.60339 31.4462H1.15418L1.37879 32.5231C-0.00219804 32.7176 -0.666018 34.211 0.929575 34.6769C0.777021 35.6212 0.886459 36.0157 1.828 36.4L3.40021 39.8462L1.828 39.2L2.27718 39.6308C1.54545 40.5765 0.77032 42.0858 2.0526 42.8615L2.27718 45.2308L3.40021 45.0154C2.32412 46.4677 4.24989 46.1475 4.44835 47.3846C4.62388 48.4788 3.27002 48.9994 3.21304 49.9692C3.10043 51.8861 6.70045 49.822 6.09543 50.1846V50.4L7.44304 51.0462L6.54464 51.2615C7.45023 52.9318 9.19171 52.3232 10.8121 52.3385L13.2827 50.6154L13.9565 50.8308L13.7319 51.4769C14.4967 51.5327 14.8739 51.605 15.0795 52.3385C13.8426 52.0687 13.1055 53.0606 12.6089 54.0616L14.4057 53.6308C15.0763 55.461 17.8407 54.3559 19.5716 54.7077C18.6514 55.7276 18.0475 55.8203 18.224 57.2923L23.3898 56.6462L23.1652 55.1385L23.839 56.2154L24.5128 56L25.6359 56.6462V56.8615H24.7374L25.4112 58.3692L28.1065 57.7231L27.8819 56.6462C29.538 56.9 30.7613 56.7545 31.7001 55.3539C32.6501 58.5958 32.1493 62.3439 32.1493 65.6923C32.1493 71.6749 32.6166 78.1058 31.4755 84H34.1707C34.1707 76.7559 33.989 69.4878 34.1741 62.2462C34.218 60.5291 33.9316 55.9462 35.9677 55.3539L36.4169 54.4923L36.1923 53.4154C38.8547 52.708 34.027 51.2814 37.2773 50.2906C38.5876 49.8912 38.954 51.5528 39.8474 52.0132C40.4696 52.3338 41.349 52.0794 42.0319 52.1231L42.2565 51.0462L43.6042 52.7692H44.278L44.5026 52.1231L46.524 52.7692L45.8502 52.1231L47.4224 51.4769V51.0462L46.7486 50.4L48.77 49.1077L49.6684 49.3231C50.2939 48.1045 51.7589 47.4409 53.0374 46.9538C52.8182 45.8715 53.3177 45.2696 54.1605 44.5846L54.3851 43.2923L51.6898 40.4923C51.9351 37.355 47.162 37.3637 45.1763 38.3385L45.401 39.2H45.1763V36.1846L42.2565 36.4L42.7057 35.1077C43.4065 35.3732 43.8252 35.5209 44.278 34.8923L43.1549 34.4615L43.3796 34.8923H43.1549L40.4597 34.0308L40.9089 32.7385L41.8073 32.9538C43.2514 31.8225 45.2158 32.4703 46.524 33.3846L46.7486 32.7385L48.77 34.0308L46.9732 31.4462L47.647 31.6615V31.2308L52.5882 32.0923V33.3846L53.7113 32.7385C55.1599 33.721 56.297 35.1939 58.2033 34.4615C57.826 32.5729 59.2564 31.118 60.0001 29.2923L59.5509 28.6462L57.5295 27.7846L56.8557 28.4308L56.4065 26.2769V26.0615L57.3049 24.7692H56.1819C55.76 24.0316 55.3856 23.9792 54.6097 24.3385V24.5539L55.2835 25.2L53.4867 24.9846C54.2467 24.2324 55.2116 23.7905 54.1605 22.8308L53.9359 23.2615H53.7113L52.5882 22.6154V22.4L53.2621 21.7539L52.139 21.5385L52.3636 22.4L50.7914 22.1846V21.3231H51.6898L51.2407 20.6769C52.0094 20.8016 52.3332 20.7625 52.5882 20.0308C51.2408 20.0155 50.8863 19.761 50.5668 18.5231C51.3491 18.3615 51.2178 17.9369 50.5668 17.6615C51.0951 16.6689 51.021 15.9787 50.3422 15.0769C50.9445 14.6952 50.9445 14.3817 50.3422 14C51.296 11.7148 48.6038 10.079 46.9732 8.83077L46.524 10.3385L47.1978 10.9846L44.278 9.69231L45.6256 9.26154L45.1763 7.75385H44.9517L44.278 9.04616L42.2565 7.96923L39.5613 8.83077L40.4597 7.53845L39.3367 7.75385L40.6843 5.81539C41.8513 6.60441 43.776 8.21504 44.9517 7.10769H45.1763L45.8502 7.53845L45.6256 6.46154L44.9517 6.8923C44.4888 5.50683 43.5548 4.8618 42.0319 4.95385C42.2341 2.89178 40.6188 2.77794 38.8875 3.23077V3.01538C39.5824 2.52938 39.4783 2.06529 39.3367 1.29232L37.5399 1.07691L37.9891 0H37.5398ZM20.6947 1.72308V1.93847L21.3685 2.58462H21.5931L23.1653 1.72308V1.29232C22.1057 0.994763 21.5738 1.06812 20.6947 1.72308ZM19.3471 1.07691V1.50769L19.7963 1.07691H19.3471ZM27.6574 1.29232V1.72308L27.2082 1.29232H27.6574ZM36.1923 2.58462L34.62 3.23077C34.0936 2.28512 33.4011 2.34708 32.374 2.36923C33.1302 1.22449 35.429 1.56875 36.1923 2.58462ZM37.3153 2.15384V2.36923H36.6415L37.3153 2.15384ZM15.5288 3.44616L15.978 4.09231V3.44616H15.5288ZM39.5613 4.09231V4.30768C38.4579 4.23361 37.6935 4.16509 36.8661 4.95385C36.8129 3.50503 38.6107 3.65401 39.5613 4.09231ZM17.5503 4.30768V4.52308L18.6733 4.73846L17.5503 4.30768ZM16.6519 4.52308V5.16924H17.3257V4.52308H16.6519ZM14.1812 5.45642C14.3549 5.45642 14.2172 5.56364 14.1064 5.52822L14.1812 5.45642ZM15.7534 5.6C15.1966 6.5716 13.9299 6.88301 12.8336 6.67693L15.7534 5.6ZM32.1494 5.6L33.0478 6.46154V6.67693H32.374L32.8232 7.75385L31.0264 7.10769L31.251 7.96923L30.3526 7.53845L30.128 8.18462L29.2295 7.32308L30.3526 7.53845V7.32308L29.9034 6.8923L31.7002 5.6H32.1494ZM34.1708 6.8923V7.96923H35.0693L35.2939 9.26154L35.9677 9.04616V9.47692C37.07 9.35584 37.9344 9.85814 37.7645 10.9846L38.8875 11.2L36.8661 11.6308H36.6415C36.1077 10.6158 35.2637 10.5367 34.1708 10.3385V10.1231L35.743 9.69231L32.8232 9.04616L34.62 8.61538L33.2724 6.8923H34.1708ZM41.1335 6.8923V8.18462L42.4811 7.32308L41.1335 6.8923ZM18.8979 7.53845L19.1225 8.18462L18.6733 8.83077H18.4487L15.978 7.75385L18.8979 7.53845ZM22.7161 7.53845L22.9407 7.96923H22.4915L22.7161 7.53845ZM20.6947 7.96923V8.18462L20.0209 8.40001L20.6947 7.96923ZM38.8875 7.96923V8.40001L38.4383 7.96923H38.8875ZM19.5717 8.61538L21.8177 9.47692L21.3685 10.1231V10.9846C20.4066 10.172 19.9145 9.98111 18.6733 10.3385L19.1225 8.61538H19.5717ZM15.7534 8.83077V9.26154H14.6304V8.83077H15.7534ZM38.6629 8.83077L38.2137 9.47692L38.8875 9.69231L39.5613 8.83077C39.268 10.1796 38.109 10.3069 37.9891 8.83077H38.6629ZM40.9089 8.83077V9.04616H40.2351L40.9089 8.83077ZM26.9836 9.04616L27.6574 9.47692V9.69231C27.0511 9.71762 26.5714 9.65389 26.9836 9.04616ZM25.8605 10.9846C25.6754 10.1765 25.3663 9.92457 24.5129 10.1231V9.26154C25.3661 9.2788 27.2713 10.6871 25.8605 10.9846ZM41.8073 9.54872C41.981 9.54872 41.8433 9.65594 41.7325 9.62052L41.8073 9.54872ZM33.7216 9.69231L31.251 10.7692L31.4756 9.9077L33.7216 9.69231ZM33.9462 10.5538V11.2L33.497 10.5538H33.9462ZM8.79076 10.7692V10.9846H7.89236L8.79076 10.7692ZM25.1868 10.7692V11.2L24.7375 10.7692H25.1868ZM40.6843 10.841C40.858 10.841 40.7203 10.9483 40.6094 10.9128L40.6843 10.841ZM13.2828 10.9846L13.5074 11.8462L13.2828 12.0616L11.9352 11.6308L13.2828 10.9846ZM23.8391 10.9846V11.2H22.4915L23.8391 10.9846ZM30.128 11.2L31.0264 11.4154C30.6347 12.8064 28.8003 12.7153 27.4328 12.9231L28.7804 11.2H30.128ZM8.11696 11.4154L8.56618 12.0616L7.66775 11.6308L8.11696 11.4154ZM9.46457 11.4154L10.363 12.0616L11.2614 11.4154C10.7973 12.3753 10.0943 13.2539 9.01536 13.5692L9.68918 12.2769H8.79076L9.01536 11.4154H9.46457ZM41.5827 12.2769H40.2351C40.6839 11.6375 41.047 11.7668 41.5827 12.2769ZM47.647 11.918C47.8207 11.918 47.683 12.0252 47.5721 11.9898L47.647 11.918ZM31.7002 13.3539H30.8018L31.0264 12.7077L31.7002 13.3539ZM38.4383 12.7077V13.1385H37.9891V12.7077H38.4383ZM11.2614 13.3539L12.1598 13.5692L11.9352 14.8615L11.2614 13.3539ZM39.3367 13.7846L37.7645 14.2154L37.9891 13.3539L39.3367 13.7846ZM27.6574 14V14.2154L26.759 14.4308L27.6574 14ZM40.6843 15.2923L40.4597 15.5077L39.1121 15.0769C39.6482 14.1996 40.2131 14.5274 40.6843 15.2923ZM14.4058 14.6462L14.6304 16.5846L15.3042 16.8V17.0154C14.0875 16.9271 13.5867 16.4046 13.2828 15.2923L13.9566 14.6462H14.4058ZM8.34157 14.8615V15.2923H7.89236L8.34157 14.8615ZM17.5503 15.0769L17.7749 16.3692C17.2082 15.9742 17.1872 15.6411 17.5503 15.0769ZM25.4113 17.0154C23.6832 16.9276 20.9807 17.4228 20.0209 15.7231C21.0765 15.9704 21.7891 16.5291 22.7161 15.7231L21.1439 15.9385V15.5077C22.2769 15.3801 24.7891 16.1206 25.4113 17.0154ZM25.4113 15.2923V15.7231L24.9621 15.2923H25.4113ZM34.3954 16.5846L31.4756 15.9385C32.5665 15.1733 33.7225 15.5036 34.3954 16.5846ZM41.3581 15.3641L41.433 15.4359C41.3222 15.4713 41.1844 15.3641 41.3581 15.3641ZM26.3098 17.6615L26.5344 17.0154L25.6359 15.9385C27.0966 15.7036 27.3325 16.8235 26.3098 17.6615ZM19.3471 15.9385V16.3692H18.8979V15.9385H19.3471ZM20.0209 16.5846V17.0154H19.3471V16.5846H20.0209ZM49.893 16.8V17.0154L49.2192 17.2308V17.0154L49.893 16.8ZM26.5344 18.9539L24.0637 18.7385C24.6633 17.8771 25.9911 18.1472 26.5344 18.9539ZM11.9352 18.9539V20.0308H12.1598L11.9352 18.9539ZM18.8979 19.6V19.8154L17.101 20.2462L18.8979 19.6ZM46.9732 19.3846H47.8716L48.0962 19.6L47.8716 20.2462L46.9732 19.3846ZM51.4653 19.3846V19.8154H51.9144V19.3846H51.4653ZM32.8232 21.9692L31.0264 20.0308C32.6304 19.4958 32.8186 20.7016 32.8232 21.9692ZM44.5026 20.8923L46.0748 21.5385V21.7539C45.2986 21.9184 44.4818 21.7899 44.5026 20.8923ZM11.0368 21.5385L10.1384 22.4L10.5876 21.3231L11.0368 21.5385ZM53.4867 21.7539V21.9692L54.6097 22.1846L53.4867 21.7539ZM46.524 22.1846V22.6154H46.0748L46.524 22.1846ZM10.1384 23.0462L8.56618 23.2615C9.01716 22.6766 9.63845 22.4088 10.1384 23.0462ZM25.4113 22.9026C25.585 22.9026 25.4473 23.0098 25.3365 22.9744L25.4113 22.9026ZM53.2621 23.6923H51.2407C51.9601 23.2862 52.7048 22.969 53.2621 23.6923ZM8.56618 23.6923V24.1231L8.11696 23.6923H8.56618ZM47.1978 23.6923V24.3385H46.9732L47.1978 23.6923ZM8.34157 24.5539L7.44315 26.0615L5.64633 26.2769C6.25918 25.1605 7.02983 24.6827 8.34157 24.5539ZM30.3526 25.6308L29.2296 24.9846C29.9019 24.9985 30.2056 24.973 30.3526 25.6308ZM41.5827 25.6308L40.9089 25.4154L41.1335 26.0615L40.9089 26.2769H40.4597L40.0105 25.4154L40.6843 24.9846L41.5827 25.6308ZM13.9566 25.8462L15.3042 27.1385L14.6304 25.8462C15.2811 26.2425 15.6783 26.6467 15.3042 27.3539V27.5692L15.5288 28.8615L14.855 27.5692L13.9566 28.8615H11.9352V29.9385L11.2614 29.7231L11.486 28.6462L12.3844 28.4308L11.9352 27.7846C13.232 27.2435 13.5634 27.1617 13.9566 25.8462ZM20.0209 26.0615L25.1868 27.3539L24.7375 28.2154H25.4113V28.6462L24.2883 28.4308L22.0423 29.2923H21.8177L20.6947 28.6462L20.4701 29.9385L19.7963 28.4308L17.3257 29.0769V28.8615L19.3471 27.5692L19.7963 28.4308L21.3685 28L21.5931 28.6462C22.1208 28.1863 22.3832 27.1962 21.3685 27.5692L20.0209 27.1385V27.5692L17.101 26.2769L20.0209 26.0615ZM12.609 26.2769V26.4923L11.2614 26.9231L12.609 26.2769ZM16.6519 26.4923L16.8765 26.7077V26.9231L16.6519 27.1385H16.4273L16.2026 26.9231V26.7077L16.6519 26.4923ZM51.016 27.7846L53.4867 28.6462C54.0579 27.8106 54.7789 28.1176 55.2835 28.8615L54.3851 28.6462L53.9359 29.9385L52.3636 29.5077L50.1176 28L51.016 27.7846ZM7.44315 28.6462V29.0769H6.99393L7.44315 28.6462ZM14.4058 28.718C14.5795 28.718 14.4418 28.8252 14.331 28.7898L14.4058 28.718ZM16.4273 28.6462L15.978 30.3692H15.7534L15.978 28.6462H16.4273ZM9.46457 28.8615V29.2923H9.01536V28.8615H9.46457ZM34.3954 29.0769L34.62 29.5077H34.1708L34.3954 29.0769ZM45.401 29.2923V29.5077H43.6042V29.0769L45.401 29.2923ZM22.4915 29.2923L23.8391 29.5077C23.453 29.8216 22.1829 30.0355 22.4915 29.2923ZM47.4224 29.2923V29.9385H49.2192V30.3692L48.0962 30.1539L46.7486 30.8V29.2923H47.4224ZM4.74793 29.5077C4.87698 30.0238 4.85464 30.0434 4.29872 30.1539L4.74793 29.5077ZM25.8605 29.9385L26.0852 30.8L27.2082 30.5846V30.8L24.0637 31.0154L25.8605 29.9385ZM12.609 31.0154H12.8336L14.4058 30.1539L13.0582 31.2308L13.2828 31.8769L11.2614 30.5846L9.01536 31.0154C10.1932 30.3608 11.7024 29.6377 12.609 31.0154ZM35.0693 30.2256C35.243 30.2256 35.1053 30.3329 34.9944 30.2975L35.0693 30.2256ZM37.0907 31.0154L35.743 30.8L35.9677 30.1539L37.0907 31.0154ZM19.7963 31.2308H16.8765C17.707 30.5381 19.1234 30.2354 19.7963 31.2308ZM14.855 30.8L16.4273 31.0154L16.2026 31.6616H15.0796L14.855 30.8ZM31.4756 30.8V31.2308L30.128 31.6616L31.4756 30.8ZM7.44315 31.4462L8.79076 32.7385L8.56618 34.0308L6.76935 32.9539L6.54475 33.6C5.69075 33.0398 5.37722 31.8881 6.76935 32.0923L6.99393 31.4462H7.44315ZM14.1812 31.4462L13.9566 32.0923H13.732L14.1812 31.4462ZM11.9352 32.5231L10.1384 31.8769C10.9083 31.6443 11.7446 31.6659 11.9352 32.5231ZM16.6519 31.8769H17.3257C17.0813 32.3428 16.4188 32.5225 16.6519 31.8769ZM20.2455 31.8769C20.8319 32.6881 20.5478 33.1805 19.5717 33.3846V33.1692L20.4701 32.7385L20.2455 31.8769ZM57.9787 31.8769L57.0803 33.1692H56.8557L55.5081 32.3077L57.9787 31.8769ZM28.1066 32.0923L29.005 34.0308L28.3312 33.8154V35.5385L24.0637 34.4615L27.7612 33.6462L28.1066 32.0923ZM5.19714 32.7385C6.03921 34.4711 7.88562 34.7175 9.68918 34.8923V35.1077C8.7816 35.4185 8.08463 35.7455 7.44315 34.8923L4.97253 34.2462L4.52332 34.6769L3.6249 34.0308L1.8281 35.5385L2.27729 34.0308L5.19714 32.7385ZM51.4653 33.3846V34.4615H51.6898L51.4653 33.3846ZM18.2241 35.3231L16.6519 34.8923H16.4273C15.9192 35.1672 13.1493 36.0519 15.3042 36.6154L12.609 37.9077L12.1598 37.0462H14.1812L13.2828 36.4V35.9692C15.0357 34.6672 16.0669 32.8133 18.2241 35.3231ZM21.5931 33.8154L22.7161 35.1077V35.3231L21.8177 34.4615C21.333 34.251 21.2561 34.2056 21.5931 33.8154ZM46.9732 33.8154V34.2462H47.4224L46.9732 33.8154ZM30.3526 34.0308V35.5385C29.7848 34.9649 29.8032 34.6184 30.3526 34.0308ZM34.1708 35.1077L33.2724 34.6769C33.1065 35.4044 32.7467 35.2045 32.1494 34.8923L31.9248 35.7538C31.5645 34.2271 33.4571 33.8993 34.1708 35.1077ZM42.2565 34.8923V35.3231H41.8073V34.8923H42.2565ZM10.1384 35.3231V35.7538L9.68918 35.3231H10.1384ZM25.6359 35.3231L25.4113 35.7538H25.1868L24.9621 35.3231H25.6359ZM4.29872 35.5385L3.8495 35.9692V35.5385H4.29872ZM16.2026 35.5385L16.4273 35.7538L15.7534 36.4L15.5288 36.1846L16.2026 35.5385ZM34.3954 35.5385L35.5184 37.2616C34.8242 36.8748 34.2238 36.3426 34.3954 35.5385ZM42.2565 36.4L42.4811 36.6154L41.8073 37.0462L42.2565 36.4ZM21.5931 36.6154V37.0462L21.1439 36.6154H21.5931ZM18.4487 36.8308L18.6733 37.2616H18.2241L18.4487 36.8308ZM42.9303 37.118C43.104 37.118 42.9663 37.2252 42.8555 37.1898L42.9303 37.118ZM22.2669 37.2616L23.3899 37.6923V37.9077L22.2669 38.1231V37.2616ZM18.2241 38.1231H16.4273C17.0805 37.6596 17.7152 37.4181 18.2241 38.1231ZM27.6574 37.7641C27.8311 37.7641 27.6934 37.8713 27.5825 37.8359L27.6574 37.7641ZM37.9891 37.7641C38.1628 37.7641 38.0251 37.8713 37.9142 37.8359L37.9891 37.7641ZM14.855 37.9077V38.3385L14.4058 37.9077H14.855ZM39.5613 37.9077V38.3385H39.1121V37.9077H39.5613ZM36.6415 38.3385V38.5539L34.1708 39.4154C36.1599 39.8695 38.3284 40.1708 39.7859 38.7692V39.4154C40.5704 39.3287 41.1156 39.1748 41.5827 39.8462L42.2565 39.6308L42.0319 40.7077L44.278 42.6462V43.0769L43.6042 43.2923L43.1549 42.4308L40.2351 43.0769V42.8616L42.4811 41.7846L39.1121 40.2769V41.1385L37.3153 41.5692C36.2179 39.8374 32.5441 39.7258 30.5772 39.8462L30.128 38.9846C30.8055 38.7966 32.9228 38.6992 33.0478 39.4154L36.6415 38.3385ZM38.8875 38.9846V39.2H36.6415C37.3705 38.5148 37.9605 38.8052 38.8875 38.9846ZM10.1384 38.9846L11.2614 39.2L10.1384 40.0615V38.9846ZM16.6519 38.9846L16.8765 39.4154H16.4273L16.6519 38.9846ZM34.1708 40.4923V40.7077H33.497L34.1708 40.4923ZM25.8605 41.1385L25.6359 41.5692H25.4113L25.1868 41.1385H25.8605ZM47.4224 42.2154V42.4308H46.7486L47.4224 42.2154ZM49.893 42.4308V42.6462L49.4438 43.2923L48.3208 42.4308H49.893ZM27.6574 42.8616V43.0769H26.3098L27.6574 42.8616ZM30.8018 42.6462L30.5772 44.1539L30.3526 42.6462H30.8018ZM3.17571 43.1487L3.25058 43.2205C3.13973 43.2559 3.00202 43.1487 3.17571 43.1487ZM26.5344 43.7231V43.9385H25.1868L26.5344 43.7231ZM48.3208 43.7231V43.9385L46.0748 44.1539C46.6219 43.3563 47.4301 43.707 48.3208 43.7231ZM44.7272 44.3693L44.278 44.8V44.3693H44.7272ZM25.8605 44.8718C26.0342 44.8718 25.8965 44.979 25.7857 44.9436L25.8605 44.8718ZM28.7804 45.0154V45.2308H27.882L28.1066 45.8769L26.5344 46.0923C27.0004 45.0672 27.642 44.7181 28.7804 45.0154ZM46.9732 45.0154V45.2308C46.2338 45.4215 45.5898 45.6453 45.401 44.8L46.9732 45.0154ZM40.6843 45.6616V45.8769H39.1121L40.6843 45.6616ZM25.8605 45.6616V46.0923H25.4113V45.6616H25.8605ZM30.128 45.8769L29.005 47.1693H28.7804L28.5558 46.0923L30.128 45.8769ZM12.1598 46.3077V46.9539H11.7106V46.3077H12.1598ZM37.0907 46.3077L37.5399 47.6L36.8661 46.7385C36.2149 46.9582 35.8984 47.0029 35.743 46.3077H37.0907ZM39.5613 47.1693L38.4383 46.5231C39.1002 46.3071 39.3173 46.5829 39.5613 47.1693ZM39.7859 46.3795C39.9596 46.3795 39.8219 46.4868 39.711 46.4513L39.7859 46.3795ZM31.4756 46.7385V47.8154L30.8018 47.3846V47.1693L31.4756 46.7385ZM44.5026 46.7385L44.9517 46.9539V47.1693L44.5026 46.7385ZM48.3208 46.8103C48.4945 46.8103 48.3568 46.9175 48.2459 46.8821L48.3208 46.8103ZM11.0368 46.9539L10.8122 47.8154H10.5876V46.9539H11.0368ZM30.5772 47.3846L29.4542 47.8154C29.7762 47.2751 29.9749 47.0998 30.5772 47.3846ZM13.2828 47.1693L13.9566 48.2462L13.732 48.4616H13.2828L13.0582 48.2462L12.8336 47.3846L13.2828 47.1693ZM50.3422 47.1693V47.6L49.893 47.1693H50.3422ZM6.99393 47.3846L7.21854 48.0308L8.79076 47.6L9.23997 48.4616H9.46457L9.68918 47.6H9.91379L9.01536 49.5385C8.61155 48.8221 8.2671 48.7655 7.44315 48.8923L6.99393 47.3846ZM35.2939 47.3846H36.8661L35.743 48.4616L35.2939 47.3846ZM20.2455 47.8154L20.4701 48.0308V48.2462L20.2455 48.4616H20.0209L19.7963 48.2462V48.0308L20.2455 47.8154ZM37.7645 47.8154L38.2137 48.6769L36.8661 48.4616L37.7645 47.8154ZM32.1494 48.0308L31.9248 49.5385H31.7002V48.0308H32.1494ZM6.54475 48.318L6.61962 48.3898C6.50878 48.4252 6.37105 48.318 6.54475 48.318ZM14.4058 48.4616V49.1077L13.9566 48.4616H14.4058ZM15.978 48.6769V50.1846L15.0796 48.8923L15.978 48.6769ZM21.1439 49.7539H20.6947L20.4701 48.6769C21.1519 48.8924 21.2549 49.0782 21.1439 49.7539ZM44.5026 48.7487C44.6763 48.7487 44.5386 48.856 44.4277 48.8205L44.5026 48.7487ZM35.743 49.1077L35.5184 49.9692L36.6415 49.5385C36.1221 50.3048 35.5408 50.3786 34.62 50.4C34.7476 49.6284 34.9588 49.3353 35.743 49.1077ZM14.6304 49.5385V50.4H14.4058L14.1812 49.5385H14.6304ZM40.6843 50.4L40.9089 50.8308H40.4597L40.6843 50.4ZM29.005 54.4923C28.6497 55.5054 27.8815 55.097 26.9836 54.9231C27.4997 54.0373 28.0855 54.2274 29.005 54.4923ZM28.7804 56L29.4542 55.5693C28.984 56.4007 27.7514 56.6094 27.4328 55.5693L28.7804 56Z" fill="#FAFAFF"/>
</g>
<defs>
<clipPath id="clip0_52_74">
<rect width="60" height="84" fill="white"/>
</clipPath>
</defs>
</svg>
