<?xml version="1.0" encoding="UTF-8" standalone="no"?>
<!-- Created with Inkscape (http://www.inkscape.org/) -->

<svg
   width="112.43409mm"
   height="172.79953mm"
   viewBox="0 0 112.43409 172.79953"
   version="1.1"
   id="svg1"
   xml:space="preserve"
   inkscape:version="1.3.2 (091e20e, 2023-11-25, custom)"
   sodipodi:docname="drawing.svg"
   xmlns:inkscape="http://www.inkscape.org/namespaces/inkscape"
   xmlns:sodipodi="http://sodipodi.sourceforge.net/DTD/sodipodi-0.dtd"
   xmlns="http://www.w3.org/2000/svg"
   xmlns:svg="http://www.w3.org/2000/svg"><sodipodi:namedview
     id="namedview1"
     pagecolor="#ffffff"
     bordercolor="#000000"
     borderopacity="0.25"
     inkscape:showpageshadow="2"
     inkscape:pageopacity="0.0"
     inkscape:pagecheckerboard="0"
     inkscape:deskcolor="#d1d1d1"
     inkscape:document-units="mm"
     inkscape:zoom="0.79196829"
     inkscape:cx="1666.7334"
     inkscape:cy="582.72535"
     inkscape:window-width="1920"
     inkscape:window-height="1166"
     inkscape:window-x="-11"
     inkscape:window-y="-11"
     inkscape:window-maximized="1"
     inkscape:current-layer="layer1" /><defs
     id="defs1" /><g
     inkscape:label="Layer 1"
     inkscape:groupmode="layer"
     id="layer1"
     transform="translate(-509.12764,-389.92647)"><path
       style="fill:#008000"
       d="m 569.89569,561.99828 c 0.0478,-0.40019 0.37839,-3.04933 0.73473,-5.88698 1.58087,-12.58891 2.17745,-23.16796 1.84269,-32.67604 -0.34777,-9.87746 -0.28991,-25.72955 0.1256,-34.40981 0.40204,-8.39876 0.37226,-8.66184 -1.01175,-8.93864 -1.5447,-0.30894 -1.86975,-0.94935 -1.86975,-3.68374 0,-2.12491 -0.067,-2.49177 -0.50537,-2.76551 -0.71169,-0.44446 -0.92281,-1.69341 -0.46961,-2.77807 0.32096,-0.76816 0.32322,-0.97939 0.015,-1.4009 -0.52298,-0.71522 -0.44664,-1.72721 0.18066,-2.39494 l 0.54359,-0.57863 -0.54359,-0.96783 c -0.29898,-0.5323 -0.5436,-1.43634 -0.5436,-2.00898 0,-0.7913 -0.18357,-1.22896 -0.7649,-1.82366 -0.4207,-0.43036 -0.80765,-0.90955 -0.8599,-1.06486 -0.0522,-0.1553 -0.83858,-0.35997 -1.74741,-0.45482 -0.90884,-0.0949 -1.78662,-0.33414 -1.95063,-0.53176 -0.25028,-0.30158 1.26945,-0.36005 9.45763,-0.3639 11.48666,-0.005 16.64003,-0.38804 16.32383,-1.21205 -0.0902,-0.23506 0.0376,-0.37316 0.34901,-0.37714 0.9113,-0.0117 3.46821,-1.22727 4.69381,-2.23156 1.33729,-1.09581 2.66523,-3.18995 3.0424,-4.79782 0.23143,-0.98657 0.24381,-0.99652 0.26917,-0.2165 0.0667,2.05114 -2.70056,5.67527 -5.38356,7.05066 -1.3971,0.71619 -0.82581,0.88889 1.09411,0.33075 3.1456,-0.91445 4.86517,-2.19512 5.6227,-4.18757 0.4338,-1.14099 1.81003,-11.23524 2.11854,-15.53887 0.43758,-6.10427 0.36403,-19.70779 -0.11529,-21.32181 -0.75711,-2.54948 1.17134,-2.32694 -21.13132,-2.43855 -10.78943,-0.054 -20.58148,-0.10679 -21.76011,-0.11731 -3.52838,-0.0315 -5.71626,1.22594 -6.46216,3.71398 -0.52158,1.73981 -1.15788,20.42877 -0.71076,20.8759 0.10763,0.10762 0.61582,-0.21152 1.12931,-0.70922 0.77284,-0.74906 0.97586,-0.83708 1.17894,-0.51108 0.39671,0.63685 0.6051,2.58733 0.4436,4.15211 -0.14486,1.40361 -0.12993,1.44786 0.42885,1.27093 0.31841,-0.10081 1.09055,-0.23529 1.71586,-0.29883 0.6253,-0.0635 2.04217,-0.47514 3.1486,-0.91466 2.31632,-0.92014 2.85432,-0.88057 2.45099,0.18027 -0.14797,0.38918 -0.2072,0.76943 -0.13163,0.845 0.0756,0.0756 0.002,0.30005 -0.16259,0.49886 -0.165,0.19881 -0.23363,0.42783 -0.15251,0.50895 0.0811,0.0811 -0.0151,0.53656 -0.21379,1.01211 -0.26258,0.62843 -0.28182,0.94408 -0.0704,1.15546 0.21138,0.21138 0.17166,0.47269 -0.14538,0.95656 -0.59212,0.90369 -0.56496,1.46223 0.0631,1.29799 0.54887,-0.14353 0.99271,0.30896 0.56334,0.57432 -0.14789,0.0914 -0.2689,0.44979 -0.2689,0.79642 0,0.34662 -0.11906,0.70381 -0.26458,0.79375 -0.15512,0.0959 -0.26458,-0.18321 -0.26458,-0.67453 0,-0.7618 -0.0602,-0.82294 -0.66146,-0.67203 -0.80753,0.20268 -0.80697,0.23546 -0.0263,-1.52972 0.34932,-0.78989 0.53641,-1.53742 0.41575,-1.66119 -0.19222,-0.19718 -0.0227,-1.65608 0.40024,-3.44476 0.12889,-0.54507 0.0859,-0.56019 -0.85615,-0.3011 -0.54552,0.15003 -1.4532,0.50758 -2.01706,0.79455 -0.56387,0.28697 -1.26672,0.45861 -1.5619,0.38142 -0.29517,-0.0772 -0.86971,0.0319 -1.27675,0.24236 -0.40704,0.21049 -1.01388,0.38253 -1.34853,0.38231 -0.59074,-3.9e-4 -0.60812,-0.0699 -0.5971,-2.38815 0.0124,-2.60853 -0.13206,-3.15781 -0.66241,-2.51877 -0.18688,0.22517 -0.54726,0.4094 -0.80086,0.4094 -0.2536,0 -0.76382,0.23812 -1.13382,0.52916 -0.36999,0.29105 -0.85942,0.52917 -1.08762,0.52917 -0.22819,0 -0.80472,0.23768 -1.28118,0.52818 -0.47646,0.2905 -1.20662,0.52862 -1.62258,0.52917 -0.67474,8.8e-4 -0.73838,-0.0703 -0.59027,-0.66047 0.12996,-0.51778 0.0643,-0.66274 -0.30204,-0.66735 -0.38696,-0.005 -0.35344,-0.10054 0.19339,-0.55212 0.3638,-0.30044 0.50262,-0.46317 0.30848,-0.36163 -0.25559,0.13368 -0.32859,0.013 -0.26458,-0.43736 0.0486,-0.34208 0.29547,-0.66144 0.54857,-0.70967 0.37725,-0.0719 0.43685,0.0587 0.33073,0.7249 -0.0712,0.44693 -0.18817,1.18063 -0.25994,1.63044 l -0.1305,0.81784 1.12268,-0.65794 c 0.61748,-0.36186 1.18222,-0.65289 1.25498,-0.64672 0.0728,0.006 0.39315,-0.0716 0.71199,-0.17278 l 0.5797,-0.18399 0.0936,-11.16577 c 0.0803,-9.56704 0.1571,-11.35585 0.53676,-12.4933 0.44433,-1.33121 1.80922,-2.91419 3.07226,-3.56318 1.01131,-0.51964 6.16389,-1.84358 7.20049,-1.85015 l 0.95007,-0.006 0.16509,-5.88698 c 0.0908,-3.23784 0.0925,-7.32801 0.004,-9.08926 -0.17777,-3.52703 -0.0615,-4.36134 0.71595,-5.13883 1.03501,-1.035 4.7388,-0.50345 5.13237,0.73658 0.0822,0.25909 0.20484,4.03445 0.27248,8.38969 0.0676,4.35524 0.19985,8.6987 0.29383,9.65214 l 0.17086,1.73353 5.59468,-0.007 c 3.07707,-0.004 6.74186,-0.10982 8.14396,-0.23536 l 2.54929,-0.22824 0.12228,-7.83443 c 0.0672,-4.30895 0.21049,-8.03696 0.31831,-8.28449 0.31602,-0.7255 2.33195,-1.35616 3.86434,-1.20892 0.7388,0.071 1.47884,0.26464 1.64453,0.43033 0.40274,0.40274 0.71072,5.63309 0.69553,11.81197 l -0.0124,5.02708 0.66468,-0.0827 c 1.31374,-0.16346 5.76869,0.48957 6.73667,0.98751 1.92505,0.99024 3.00605,2.55841 3.57119,5.18061 0.34013,1.57813 0.36662,3.37839 0.17909,12.17083 -0.12105,5.67532 -0.34417,11.62844 -0.49584,13.22917 -0.15167,1.60073 -0.40374,4.57729 -0.56017,6.61458 -0.67103,8.73954 -2.38885,10.44085 -11.77266,11.65952 -1.89177,0.24569 -3.68909,0.5406 -3.99405,0.65537 -0.42437,0.15971 -0.63209,0.60187 -0.88523,1.88439 -0.18192,0.92165 -0.49874,2.12659 -0.70405,2.67765 -0.32543,0.87346 -0.32219,1.10078 0.0253,1.7728 0.49669,0.9605 0.50015,1.52232 0.0151,2.45217 -0.24705,0.47361 -0.43336,1.97769 -0.53183,4.29354 -0.0833,1.96051 -0.26389,3.86002 -0.40119,4.22114 -0.26273,0.69105 -2.00172,1.73655 -2.88841,1.73655 -0.61413,0 -0.72174,0.31323 -0.9544,2.77812 -0.0961,1.01865 -0.39511,2.86412 -0.66435,4.10104 -0.87353,4.01315 -1.10273,10.54496 -1.08624,30.95625 0.0156,19.26525 -0.14855,24.82072 -0.92227,31.22084 -0.21991,1.81901 -0.46984,5.65877 -0.55541,8.53281 -0.14462,4.85744 -0.19015,5.22552 -0.64647,5.22552 -0.33626,0 -0.4909,-0.19225 -0.4909,-0.61028 0,-1.45506 0.82862,-12.67704 1.07829,-14.60326 0.15782,-1.21763 0.36714,-13.0175 0.49281,-27.78125 0.2133,-25.05911 0.2901,-27.42285 1.23236,-37.93105 l 0.17465,-1.94771 -1.42291,0.18872 c -0.7826,0.10379 -1.53499,0.29463 -1.67198,0.42408 -0.137,0.12945 -0.34032,1.99256 -0.45184,4.14024 -0.11151,2.14769 -0.32931,6.34567 -0.484,9.32884 -0.42052,8.11006 -0.42668,20.05493 -0.0134,25.97619 0.2934,4.20374 0.30433,6.36926 0.0568,11.24479 -0.16862,3.32112 -0.37373,7.82434 -0.45579,10.00715 -0.20564,5.46984 -0.54534,9.21923 -1.35442,14.94896 -0.38014,2.69213 -0.68697,5.28174 -0.68184,5.75468 0.008,0.71562 -0.0896,0.8599 -0.58011,0.8599 -0.4877,0 -0.57446,-0.1256 -0.50262,-0.7276 z m 10.45372,-83.44909 c 0.68173,-0.14401 1.37202,-0.42151 1.53399,-0.61667 0.17222,-0.20751 0.26178,-1.10625 0.21571,-2.16459 l -0.0788,-1.80976 -1.19062,-0.13229 c -0.95798,-0.10644 -1.19062,-0.23292 -1.19062,-0.64725 0,-0.40397 0.2844,-0.5753 1.31951,-0.7949 2.16684,-0.4597 1.69451,-1.73285 -0.64288,-1.73285 -0.81951,0 -1.56871,-0.66942 -1.18136,-1.05557 0.13208,-0.13167 1.01405,-0.27546 1.95993,-0.31952 1.63366,-0.0761 1.72381,-0.11476 1.80005,-0.77183 0.0685,-0.59006 -0.0433,-0.71642 -0.76068,-0.85989 -0.46251,-0.0925 -1.11595,-0.16819 -1.45209,-0.16819 -1.04995,0 -1.97443,-0.47051 -1.80287,-0.91757 0.11702,-0.30496 0.57004,-0.40535 1.8292,-0.40535 1.46154,0 1.69574,-0.0696 1.84793,-0.5491 0.0958,-0.30201 0.11331,-0.61008 0.0388,-0.6846 -0.23535,-0.23535 -2.12313,-0.6055 -3.12158,-0.61207 -1.17182,-0.008 -1.65361,-0.47286 -1.17197,-1.13154 0.27637,-0.37797 0.7532,-0.46227 2.61465,-0.46227 2.45711,0 2.82658,-0.21416 2.82276,-1.63625 l -0.002,-0.61271 -6.48065,-0.0951 -6.48065,-0.0951 v 0.69426 c 0,0.49934 -0.24143,0.84147 -0.85989,1.21855 l -0.8599,0.52429 2.39683,9.9e-4 c 1.66961,6.9e-4 2.55265,0.1165 2.91041,0.3817 0.88144,0.65337 0.0171,1.15633 -2.39682,1.39467 -1.61221,0.15919 -2.11667,0.30358 -2.11667,0.60587 0,0.30318 0.49969,0.44368 2.11667,0.59513 2.77247,0.25968 3.30729,0.39705 3.30729,0.84951 0,0.5822 -0.33439,0.68202 -3.05308,0.9114 -2.70058,0.22786 -3.34998,0.51999 -2.86602,1.28926 0.23473,0.37312 0.76132,0.46764 2.90447,0.52138 3.08914,0.0775 3.80838,0.21204 3.80838,0.71263 0,0.56386 -1.46168,0.9207 -4.10104,1.0012 l -2.38125,0.0726 -0.0873,0.76504 c -0.0496,0.43443 0.0647,0.8616 0.26458,0.98849 0.19355,0.1229 1.82545,0.21632 3.62643,0.2076 3.54995,-0.0172 4.24334,0.20805 3.05015,0.9908 -0.55278,0.36263 -1.37402,0.51115 -3.20328,0.57934 -2.31273,0.0862 -2.46006,0.12577 -2.46223,0.66145 -0.001,0.31338 -0.0756,1.17999 -0.16523,1.92581 -0.1574,1.30995 -0.13709,1.36601 0.59761,1.64965 0.87288,0.33698 7.15306,0.15377 9.14379,-0.26675 z m -8.95927,-1.44272 c -0.0894,-0.23297 0.004,-0.53124 0.20675,-0.66282 0.51333,-0.33257 4.80112,-0.17487 4.91884,0.18091 0.16667,0.50369 -1.21563,0.90549 -3.11511,0.90549 -1.45031,0 -1.88291,-0.0911 -2.01048,-0.42358 z m 7.85207,-0.63476 c 0,-0.14552 0.35719,-0.26458 0.79375,-0.26458 0.43656,0 0.79375,0.11906 0.79375,0.26458 0,0.14552 -0.35719,0.26459 -0.79375,0.26459 -0.43656,0 -0.79375,-0.11907 -0.79375,-0.26459 z m -27.08717,-61.43544 c 1.72335,-1.61566 1.18248,-1.57051 20.58743,-1.71867 9.75949,-0.0745 19.35187,-0.15306 21.31641,-0.17454 1.96453,-0.0215 3.92906,0.0533 4.36562,0.16618 l 0.79375,0.20524 -0.62759,-0.49531 c -0.34518,-0.27242 -1.23814,-0.72196 -1.98438,-0.99898 -1.21074,-0.44947 -2.12573,-0.50347 -8.50053,-0.50168 -3.92906,0.001 -10.65609,0.0779 -14.94896,0.17075 -5.20857,0.11261 -7.56315,0.0826 -7.0776,-0.0902 l 0.7276,-0.25894 v -4.47587 -4.47587 h -2.24895 -2.24896 l 0.0523,4.43177 c 0.0512,4.33543 0.0558,4.36851 0.21228,1.52136 l 0.15998,-2.91042 0.0523,2.72937 c 0.0288,1.50116 0.17556,2.95967 0.3262,3.24115 0.23411,0.43744 0.18607,0.5101 -0.33073,0.50025 -0.33254,-0.006 -1.14041,-0.11567 -1.79525,-0.24295 -0.95233,-0.18512 -1.72016,-0.0965 -3.83646,0.44259 -1.45521,0.37071 -3.00302,0.85056 -3.43958,1.06632 -1.52926,0.75582 -3.30921,2.81536 -3.3063,3.82565 5.4e-4,0.18913 0.22358,-0.0133 0.49564,-0.44988 0.27206,-0.43656 0.83716,-1.11486 1.25578,-1.50732 z m 18.88509,-2.30374 c -0.84291,-0.27729 6.88073,-0.4816 10.18646,-0.26946 1.98474,0.12736 1.64978,0.1604 -2.01171,0.19843 -2.41613,0.0251 -5.09504,0.1003 -5.95313,0.16713 -0.85809,0.0668 -1.85782,0.0236 -2.22162,-0.0961 z m -12.21988,-0.25407 c 0.32209,-0.20425 1.63654,-0.10206 1.63654,0.12722 0,0.0558 -0.44648,0.0996 -0.99218,0.0974 -0.63245,-0.003 -0.86608,-0.084 -0.64436,-0.22462 z m 6.39904,-7.03175 c 0,-1.50972 0.10665,-2.52916 0.26459,-2.52916 0.15666,0 0.26458,0.96493 0.26458,2.36563 0,1.3011 -0.11906,2.43922 -0.26458,2.52916 -0.16934,0.10466 -0.26459,-0.74691 -0.26459,-2.36563 z m 24.26679,5.04224 c 0.0617,-0.0616 0.13349,-1.93926 0.15963,-4.17248 l 0.0475,-4.06038 -2.18281,-0.0769 -2.18281,-0.0768 -0.004,3.78101 c -0.002,2.07956 -0.0804,4.06801 -0.17425,4.41878 l -0.17064,0.63776 2.19744,-0.16945 c 1.20859,-0.0932 2.24787,-0.2199 2.30952,-0.28155 z m -3.83619,-0.82453 c -0.003,-0.43656 0.0904,-1.0914 0.2069,-1.4552 l 0.21184,-0.66146 -0.005,0.66146 c -0.003,0.3638 -0.0958,1.01864 -0.20691,1.4552 l -0.20197,0.79375 z m -19.41016,-7.97936 0.62357,-0.16692 -0.0959,-4.84484 c -0.0618,-3.12236 -0.20209,-4.951 -0.39453,-5.14344 -0.40295,-0.40295 -3.30305,-0.61364 -3.79939,-0.27602 -0.33189,0.22576 -0.38883,1.0724 -0.34772,5.17086 0.027,2.6955 0.12336,5.02097 0.21406,5.16771 0.18131,0.29338 2.81062,0.35749 3.79993,0.0926 z m -2.53021,-4.56813 c 0.14483,-1.80667 0.45144,-2.04065 0.45144,-0.34451 0,0.74327 -0.12598,1.42926 -0.27995,1.52442 -0.1879,0.11612 -0.24429,-0.27186 -0.17149,-1.17991 z m 25.97131,0.90583 c -0.10159,-1.89177 -0.23668,-3.52888 -0.3002,-3.63802 -0.16544,-0.28429 -2.30843,-0.24506 -3.10235,0.0568 -0.79605,0.30266 -0.873,0.6108 -1.05959,4.2427 l -0.14272,2.77812 h 2.39478 2.39478 z m -15.81782,119.6189 c -0.0974,-0.71045 -0.15827,-4.16237 -0.13532,-7.67094 l 0.0417,-6.37921 0.21574,7.40833 c 0.21959,7.5408 0.19374,8.94655 -0.12216,6.64182 z M 522.62138,499.5675 c 0,-0.26585 0.29766,-0.92141 0.66146,-1.45679 0.3638,-0.53538 0.66146,-1.08606 0.66146,-1.22373 0,-0.13768 0.16364,-0.31311 0.36365,-0.38986 0.20001,-0.0768 0.49289,-0.51029 0.65085,-0.96341 0.32315,-0.92697 -0.11639,-0.86938 -0.46031,0.0603 -0.11751,0.31768 -0.27475,0.43038 -0.37472,0.26861 -0.3169,-0.51275 1.69507,-2.52331 2.10993,-2.10845 0.19796,0.19796 -1.14899,2.71376 -2.16692,4.04732 -0.50393,0.66018 -0.91623,1.36278 -0.91623,1.56132 0,0.19855 -0.11907,0.43458 -0.26459,0.52452 -0.14552,0.0899 -0.26458,-0.054 -0.26458,-0.31984 z m 51.06697,-2.92131 c 0.004,-1.15542 0.73202,-6.70958 0.902,-6.87956 0.19708,-0.19708 0.20199,-0.27787 -0.22891,3.76615 -0.2013,1.88926 -0.30955,3.52637 -0.24054,3.63802 0.069,0.11165 -6.3e-4,0.203 -0.15474,0.203 -0.15411,0 -0.27912,-0.32742 -0.27781,-0.72761 z m -36.77016,-2.16542 c -0.40191,-0.75096 -0.33373,-3.90219 0.12367,-5.71649 0.54172,-2.14878 2.76862,-6.56851 4.15384,-8.24414 4.24404,-5.13379 7.40061,-8.31395 14.89547,-15.00677 3.84181,-3.4307 4.51349,-4.18871 5.58168,-6.29911 1.04209,-2.05886 1.04171,-2.05713 0.45762,-2.05713 -0.3667,0 -0.33597,-0.11393 0.17841,-0.66146 0.34177,-0.3638 0.80901,-0.65963 1.03831,-0.6574 0.34375,0.003 0.35211,0.0451 0.0476,0.23788 -0.21416,0.13561 -0.29696,0.42229 -0.19711,0.68249 0.18157,0.47318 -0.64653,2.32537 -1.95257,4.36724 -0.41885,0.65484 -2.16656,2.43993 -3.88379,3.96685 -10.22393,9.09087 -14.791,14.55498 -18.2309,21.81174 -0.62559,1.31975 -1.14324,2.26708 -1.15033,2.1052 -0.0304,-0.6944 1.64334,-4.2041 3.39024,-7.109 1.03776,-1.72568 1.84848,-3.17596 1.80161,-3.22283 -0.1457,-0.1457 -2.67635,3.40334 -3.56799,5.00383 -1.51366,2.717 -2.09382,4.6503 -2.29904,7.66114 -0.13275,1.94765 -0.10145,2.8433 0.10382,2.97017 0.16164,0.0999 0.29389,0.29367 0.29389,0.4306 0,0.43562 -0.50037,0.26798 -0.78444,-0.26281 z m -24.61556,-6.49943 c 0,-0.672 1.59782,-2.24921 2.27861,-2.24921 0.57449,0 0.60395,0.0533 0.30332,0.54872 -0.48541,0.79992 -2.58193,2.18072 -2.58193,1.70049 z m 2.06683,-1.70283 c 0.0725,-0.21762 -0.13026,-0.17599 -0.58081,0.11922 -0.38075,0.24948 -0.69227,0.57348 -0.69227,0.72002 0,0.34363 1.12628,-0.39883 1.27308,-0.83924 z m -5.24183,-8.17485 c 0,-0.32812 2.91477,-2.4257 3.37071,-2.4257 0.21657,0 -0.33419,0.48611 -1.22389,1.08023 -0.88971,0.59412 -1.61765,1.18944 -1.61765,1.32292 0,0.13348 -0.11907,0.24269 -0.26459,0.24269 -0.14552,0 -0.26458,-0.0991 -0.26458,-0.22014 z m 5.02708,-3.8809 c 0.18116,-0.21829 0.52316,-0.39309 0.76,-0.38846 0.36177,0.007 0.34851,0.0705 -0.083,0.39687 -0.66848,0.50561 -1.0992,0.50026 -0.67704,-0.008 z m 41.03376,-16.13969 c -3.12679,-1.68485 -3.81867,-2.76882 -4.55536,-7.13679 -0.57653,-3.41834 -0.63574,-4.99264 -0.18209,-4.84142 0.17682,0.0589 0.57457,1.65118 0.91431,3.66007 0.33073,1.95566 0.77484,3.925 0.9869,4.3763 0.54866,1.16764 1.63096,2.14906 3.58486,3.25073 2.94091,1.65816 2.24254,2.30289 -0.74862,0.69111 z m 22.86312,0.38445 c -1.01865,-0.10661 -4.32573,-0.34672 -7.34907,-0.53357 -3.02334,-0.18685 -5.40459,-0.41682 -5.29167,-0.51105 0.23786,-0.19846 6.71377,0.12961 10.39178,0.52646 1.38244,0.14917 3.52557,0.28298 4.7625,0.29737 1.23692,0.0144 2.96333,0.1148 3.83645,0.22313 1.34039,0.16631 1.11386,0.19655 -1.4552,0.19424 -1.67349,-0.001 -3.87615,-0.09 -4.89479,-0.19658 z m 8.73124,-0.2397 c 0.50793,-0.23012 1.92507,-0.38016 1.69775,-0.17975 -0.0606,0.0535 -0.5865,0.16971 -1.16858,0.25835 -0.7376,0.11231 -0.89797,0.0885 -0.52917,-0.0786 z m -22.18763,-1.5184 c -0.10072,-0.10072 0.14328,-0.4434 0.54223,-0.7615 0.76422,-0.60938 0.76613,-0.5727 -0.11732,-2.25809 -0.0461,-0.088 0.88015,-0.62379 2.05841,-1.19063 1.95826,-0.94208 2.13114,-1.08782 2.01253,-1.69668 -0.11349,-0.58262 0.0171,-0.72678 1.04196,-1.15068 0.64443,-0.26655 1.1717,-0.63231 1.1717,-0.81282 0,-0.18051 0.30981,-0.46936 0.68848,-0.64189 0.58525,-0.26666 0.65919,-0.42178 0.49313,-1.03466 -0.25024,-0.92362 -0.1746,-2.37964 0.15568,-2.99678 0.92701,-1.73213 3.87003,-2.58787 5.46136,-1.588 1.26065,0.7921 1.71279,1.67745 1.87189,3.66544 0.092,1.14994 0.28492,1.89002 0.54168,2.07834 0.22819,0.16737 0.32734,0.4786 0.23178,0.72761 -0.1456,0.37943 -0.72502,0.43513 -4.52578,0.43513 -3.90378,0 -4.45376,0.056 -5.2684,0.53668 -0.5947,0.35088 -0.96256,0.80149 -1.06259,1.30163 -0.0973,0.4867 -0.37349,0.83489 -0.75917,0.95719 -0.3334,0.10573 -1.06562,0.48216 -1.62715,0.83652 -0.9182,0.57944 -1.00444,0.72689 -0.85682,1.46501 0.13238,0.66187 0.0259,0.96497 -0.54989,1.56601 -0.71194,0.74311 -1.15655,0.90933 -1.50371,0.56217 z m 9.67284,-8.60104 c -0.17462,-0.17462 -0.3175,-0.93795 -0.3175,-1.69627 0,-1.2148 0.0968,-1.46023 0.81405,-2.06375 1.01627,-0.85513 1.85369,-0.86865 2.80922,-0.0454 0.67016,0.57741 0.73951,0.79612 0.71311,2.24895 -0.0282,1.55362 0.19686,2.05927 0.53011,1.19083 0.30683,-0.7996 0.15806,-2.54684 -0.28001,-3.28843 -0.75938,-1.28553 -2.13602,-1.64315 -3.5368,-0.91878 -1.02808,0.53164 -1.57884,1.66383 -1.57884,3.24557 0,1.38281 0.12079,1.64474 0.75847,1.64474 0.31554,0 0.33514,-0.0705 0.0882,-0.3175 z m 1.11607,-0.10768 c 0.57199,-0.21949 0.5285,-0.63315 -0.0666,-0.63315 -0.26679,0 -0.48507,0.17859 -0.48507,0.39687 0,0.45382 -0.007,0.45073 0.55162,0.23628 z m 12.19247,8.34895 c 0.43657,-0.12336 1.11395,-0.29025 1.5053,-0.37087 1.09835,-0.22627 4.52717,-3.10213 5.53173,-4.63965 1.20728,-1.84777 1.98879,-3.28718 2.17839,-4.01221 0.086,-0.32875 0.22964,-0.52439 0.31927,-0.43476 0.0896,0.0896 -0.11995,0.85834 -0.46574,1.70824 -1.6645,4.09114 -6.15866,8.08875 -8.9943,8.00055 l -0.8684,-0.027 z m 10.47193,-2.78641 c -0.0388,-0.53254 0.58131,-3.41582 0.78332,-3.64208 0.11024,-0.12348 0.0317,0.59089 -0.17464,1.5875 -0.40104,1.9374 -0.57453,2.52303 -0.60868,2.05458 z m 1.19517,-10.16444 c 0.25923,-5.04214 0.90061,-10.76402 0.90061,-8.03449 0,1.41952 -0.55683,7.87467 -0.79577,9.22511 -0.18394,1.03964 -0.20639,0.78468 -0.10484,-1.19062 z m -56.52185,-0.24985 c 0.35639,-0.66593 0.72702,-0.88583 1.10221,-0.65395 0.19893,0.12295 0.0871,0.34992 -0.33073,0.67119 -0.82167,0.6318 -1.11533,0.62524 -0.77148,-0.0172 z m 3.19501,-6.91656 c 0.16243,-0.30351 0.35992,-0.48724 0.43887,-0.40829 0.21809,0.21809 -0.13125,0.96011 -0.452,0.96011 -0.19568,0 -0.19165,-0.16919 0.0131,-0.55182 z m 18.41088,-0.0435 c -0.20948,-0.7817 -0.20719,-6.93005 0.003,-8.20208 l 0.164,-0.99219 h 2.34663 2.34663 v 4.47902 c 0,5.40497 0.0492,5.31056 -2.76616,5.31056 -1.78261,0 -1.94715,-0.0468 -2.09416,-0.59531 z m 0.82316,-6.8688 c -0.0518,-0.9152 -0.0946,-0.23526 -0.0952,1.51099 -5.2e-4,1.74625 0.0419,2.49506 0.0942,1.66401 0.0523,-0.83104 0.0528,-2.25979 9.5e-4,-3.175 z m 17.7949,1.96021 6e-4,-4.31328 2.3151,0.17829 c 1.27331,0.0981 2.42765,0.28231 2.5652,0.40942 0.29375,0.27147 0.55145,6.25406 0.31071,7.21325 -0.15913,0.63401 -0.25294,0.65997 -2.67855,0.74131 l -2.51365,0.0843 z m 3.63352,-0.92022 c -0.0555,-0.61408 -0.10023,-0.0449 -0.0994,1.26475 8e-4,1.30969 0.0462,1.81211 0.10088,1.1165 0.0547,-0.69562 0.054,-1.76718 -10e-4,-2.38125 z m -34.57058,2.52152 c 0.0102,-0.10914 0.12093,-0.43656 0.24599,-0.7276 0.2015,-0.46891 0.22951,-0.44631 0.24599,0.19843 0.0102,0.40019 -0.10047,0.72761 -0.24599,0.72761 -0.14552,0 -0.25621,-0.0893 -0.24599,-0.19844 z m 50.85708,-0.99219 c 0.002,-0.7276 0.0534,-0.99385 0.11419,-0.59167 0.0608,0.40218 0.0592,0.99749 -0.004,1.32292 -0.0628,0.32542 -0.11256,-0.004 -0.11057,-0.73125 z m 13.41807,-2.09753 c 0,-0.29937 0.8264,-1.81015 1.64331,-3.00425 0.91829,-1.34228 2.5818,-2.52692 3.20991,-2.28589 1.19908,0.46013 -0.10691,1.98998 -4.35782,5.10484 -0.27247,0.19965 -0.4954,0.28304 -0.4954,0.1853 z m 3.14769,-2.80789 c 1.10532,-0.80069 1.56526,-1.45003 1.25023,-1.76507 -0.30907,-0.30906 -1.46777,0.52924 -2.14408,1.55121 -0.81262,1.22795 -0.58217,1.28309 0.89385,0.21386 z m -24.97581,-3.42895 c 0.0899,-0.14552 0.27556,-0.26459 0.41249,-0.26459 0.13693,0 0.24897,0.11907 0.24897,0.26459 0,0.14552 -0.18562,0.26458 -0.41249,0.26458 -0.22687,0 -0.33891,-0.11906 -0.24897,-0.26458 z m 4.67469,-2.34341 c -0.0336,-0.67091 -0.14157,-0.85095 -0.44136,-0.73591 -0.53486,0.20525 -0.5076,-0.27201 0.0328,-0.57444 0.97799,-0.54731 -0.9804,-3.89206 -2.11248,-3.60793 -0.31823,0.0799 -0.87347,0.0189 -1.23385,-0.1355 -0.59298,-0.25404 -0.5584,-0.27266 0.36391,-0.19591 0.89593,0.0745 0.96179,0.0429 0.54475,-0.26209 -0.51291,-0.37505 -1.21597,-0.43554 -4.47431,-0.38497 -1.47359,0.0229 -1.9559,-0.0411 -1.5875,-0.21052 0.29104,-0.13386 1.58273,-0.25175 2.87043,-0.26198 2.64209,-0.021 3.57145,0.29461 4.89798,1.66323 0.8252,0.8514 2.06118,3.60985 1.61746,3.60985 -0.12419,0 -0.27251,0.44648 -0.32959,0.99218 l -0.10379,0.99219 z m -4.27781,-0.005 c 0,-0.33237 0.77637,-0.93173 0.96393,-0.74416 0.0866,0.0866 -0.0269,0.34166 -0.25208,0.56687 -0.45977,0.45977 -0.71185,0.52255 -0.71185,0.17729 z m -42.58001,-0.71198 c -0.0325,-0.51268 0.82632,-3.1395 1.20155,-3.67522 0.52324,-0.74702 0.45616,-0.24991 -0.19422,1.43927 -0.90078,2.33954 -0.98844,2.53412 -1.00733,2.23595 z m 41.56683,-1.07929 c 0.0513,-0.26621 0.31102,-0.52596 0.57722,-0.57723 0.34954,-0.0673 0.45811,0.0413 0.3908,0.3908 -0.0513,0.26621 -0.31102,0.52596 -0.57722,0.57723 -0.34954,0.0673 -0.45812,-0.0413 -0.3908,-0.3908 z m 1.54234,-2.06828 c 0,-0.0676 0.26789,-0.26573 0.59532,-0.44019 0.5398,-0.28764 0.56145,-0.27617 0.23218,0.12298 -0.33809,0.40984 -0.8275,0.59745 -0.8275,0.31721 z m -38.53751,-1.0015 c -0.0676,-0.10914 6.80961,-0.19843 15.28266,-0.19843 8.47305,0 15.32089,0.0847 15.21742,0.18812 -0.25273,0.25274 -30.34365,0.26291 -30.50008,0.0103 z m -27.74239,-2.34617 c -1.01767,-1.04163 -1.68308,-1.79954 -1.47869,-1.68427 0.24843,0.14013 0.30903,0.10835 0.18282,-0.0959 -0.10383,-0.16801 -0.36035,-0.30547 -0.57005,-0.30547 -0.20969,0 -0.38126,-0.0498 -0.38126,-0.11065 0,-0.0609 -0.0723,-0.29898 -0.1606,-0.52917 -0.10031,-0.26141 -0.0185,-0.41851 0.21783,-0.41851 0.45408,0 4.25487,4.39391 4.12856,4.77284 -0.0486,0.14572 -0.92095,-0.58729 -1.93861,-1.62891 z m 56.94744,1.42761 c 0.4697,-0.0584 1.30313,-0.0594 1.85208,-0.002 0.54895,0.0573 0.16465,0.10509 -0.85399,0.10627 -1.01865,10e-4 -1.46779,-0.0457 -0.99809,-0.10414 z m 17.79913,-5.59748 c 0,-0.36034 0.74039,-0.88803 1.08487,-0.7732 0.20769,0.0692 0.16106,0.25083 -0.14229,0.55418 -0.48702,0.48702 -0.94258,0.59288 -0.94258,0.21902 z m -6.08542,-1.20097 c 0,-0.23041 0.18852,-0.41892 0.41893,-0.41892 0.46723,0 0.38586,0.56958 -0.10473,0.73311 -0.17281,0.0576 -0.3142,-0.0838 -0.3142,-0.31419 z m -2.91041,-1.06477 c 0,-0.22687 0.11906,-0.41249 0.26458,-0.41249 0.14552,0 0.26458,0.11204 0.26458,0.24897 0,0.13693 -0.11906,0.32255 -0.26458,0.41249 -0.14552,0.0899 -0.26458,-0.0221 -0.26458,-0.24897 z"
       id="path5" /></g></svg>
