<svg width="95" height="92" viewBox="0 0 95 92" fill="none" xmlns="http://www.w3.org/2000/svg">
<g clip-path="url(#clip0_79_217)">
<path d="M6.18761 52.3553L4 54.292L4.82035 53.8079C3.97281 55.5002 4.13895 56.4063 4.5469 58.1656H5.09381C5.00489 57.1596 5.16619 52.4317 7.27023 52.7502C8.15064 52.8834 8.83852 54.2135 9.33526 54.7762C11.0435 56.7115 13.6852 60.7586 13.8443 63.2496L14.9381 63.4917C14.5281 65.0029 15.6355 69.5687 17.6726 69.7862C18.0179 71.5905 19.7342 74.2484 18.2195 75.8387C18.7133 76.6137 19.1547 76.6624 20.1336 76.565L16.7672 66.3969L16.3053 60.8287L20.954 63.2496L21.2275 60.5866H21.5009V65.1864H21.7744L22.3213 64.7022C23.2049 67.0193 24.3294 70.0414 23.4151 72.4493L24.2354 72.2072L23.4151 73.6598L23.6885 74.3861L23.1416 74.144V74.3861C27.2564 75.4235 24.1461 67.2979 23.962 65.4285H24.2354V65.9127H24.5089L24.2354 63.7338L22.5947 58.6498H22.8682C23.5864 60.5137 25.7196 64.3874 28.0648 64.9813C29.1912 65.2665 31.2811 64.465 32.439 64.218L28.6106 69.302V69.5441H29.7045C28.1883 72.8106 26.6923 76.0468 24.3928 78.9822C23.963 79.5308 21.599 81.014 22.5002 81.7405C23.5852 82.6152 24.8957 80.2864 25.3351 79.7122C27.0176 77.5136 31.0284 72.96 30.5248 70.2704L31.0717 71.2388H31.3452V70.5125L31.8921 70.9967H32.1655C32.3432 70.0287 32.8162 69.7003 33.8062 69.302L34.0797 69.5441L34.6266 72.6914C32.9563 72.8743 34.1366 74.8491 33.8062 75.8387L33.5328 75.1124H33.2593L33.5328 76.807L31.6186 79.4701L32.9859 77.5333H33.2593L32.7124 80.1964L32.1655 79.7122L30.7983 79.9543L31.8921 81.4069C33.4408 80.8019 33.3777 79.5611 33.8267 78.2596C34.7898 75.4679 35.3605 72.6372 35.9938 69.7862L36.5407 70.2704H36.8142L37.0877 67.1232L38.4549 68.0916L37.3611 66.3969L37.908 66.639V66.3969C37.6166 65.6228 37.2704 64.5006 38.1815 64.7022L37.908 63.4917H39.8222L39.5487 63.9759L45.8381 64.7022L48.8461 61.797L49.1195 62.2812C55.7372 62.7637 52.4764 70.8969 51.854 74.6282H52.1275L53.7682 70.9967H54.0416L56.5027 72.4493L54.862 72.2072L55.6824 76.3229H55.9558L56.5027 75.8387V78.5017H56.7762V77.7754L58.1434 80.9227H58.4169L58.1434 78.5017L58.9638 81.1648H59.2372L59.5107 80.6806L59.7841 82.6174C62.3601 82.6174 62.3636 88.0834 63.339 89.3961L62.5186 89.154L63.6125 90.1224L63.339 91.817L62.7921 91.5749C64.0214 92.6059 64.883 91.5884 64.7063 90.3645C66.7316 89.2644 65.2278 86.4234 64.7063 84.7962L65.2532 85.0383V84.7962L63.0656 80.4385L64.1594 81.1648L60.331 75.8387L62.7921 76.565V76.3229L59.5107 74.3861L60.331 74.6282V74.3861C58.9863 73.4574 57.7271 72.3161 57.5965 70.7546L61.4248 73.9019L58.1434 70.2704L60.6045 71.9651L57.5965 69.302L57.3231 64.9443L61.9717 67.8495L59.5107 65.4285L57.5965 64.4601C59.5739 62.5185 63.2132 64.3756 65.8001 64.0719C69.0401 63.6916 72.4734 63.5485 75.6199 62.6739C78.8974 61.7629 82.2371 59.9273 85.4886 58.7617C87.9762 57.8699 94.1871 55.9942 92.3249 52.8395C94.391 52.0149 93.5887 51.3354 93.8453 49.7333C93.9995 48.7709 95.1131 47.7778 94.9906 46.8132C94.8978 46.0822 91.7811 43.523 90.9576 43.3977L91.2311 42.6714L90.4107 42.4293L90.6842 41.703C88.6712 40.8204 85.5523 39.8995 86.3089 37.5874C84.1081 37.1426 82.5005 34.8734 80.5665 33.8261C76.2266 31.476 71.7369 29.7236 66.8939 28.3847C50.9147 23.9671 36.2062 31.0168 22.3213 36.9395C15.8407 39.7039 4.03427 40.7334 4.84588 49.4501C4.94992 50.5675 5.55551 51.416 6.18761 52.3553ZM59.7841 29.3561L61.4248 34.6822L60.331 34.4401L59.2372 29.3561H59.7841ZM49.9399 29.8403L52.9478 34.4401L50.7602 33.4717V32.9875L51.5806 32.7454V32.5033L50.4868 32.7454L49.9399 29.8403ZM69.3549 30.8087L69.9018 35.6506L68.5346 35.1664L69.0815 31.2929L68.5346 30.8087H69.3549ZM42.5567 33.4717L43.1036 34.4401H42.8301L42.5567 33.4717ZM78.1054 34.198L77.5585 35.4085L77.8319 36.8611L77.0116 37.3453H76.7381L77.285 34.6822L77.8319 34.9243L78.1054 34.198ZM77.8319 37.3453V38.0716H77.5585L77.8319 37.3453ZM90.4107 42.4293L89.5904 44.8503H89.3169L89.8638 42.4293H90.4107ZM92.0514 45.0924L92.5983 46.0608H91.5045L92.0514 45.0924ZM11.6566 46.3029L11.3832 47.2712L9.46903 46.7871L11.6566 46.3029ZM18.2195 49.4501C18.6877 51.1658 19.2218 53.0057 21.5009 53.3237L22.5947 58.4077H22.3213C20.7454 57.0069 19.148 57.1886 18.4929 59.134C15.6245 57.593 16.604 54.0855 14.6646 52.1132C15.3231 50.5282 16.3911 49.8348 18.2195 49.4501ZM34.9 50.9027V51.1448L33.8062 50.9027H34.9ZM31.0717 52.5974C30.5002 55.2443 31.6428 56.6871 32.439 59.134L29.1576 60.1024L27.9743 55.2604L25.6027 51.1448L31.0717 52.5974ZM78.6523 51.1448L78.9257 52.3553L78.1054 52.1132L78.6523 51.1448ZM27.2434 55.9867L23.962 53.5658L24.5089 53.8079V53.5658C23.5015 52.8685 23.4113 52.4771 23.4151 51.3869C25.3675 51.8953 26.6626 54.362 27.2434 55.9867ZM21.5009 51.8711V52.5974H21.2275L21.5009 51.8711ZM82.4806 52.436C82.6921 52.436 82.5244 52.5565 82.3895 52.5167L82.4806 52.436ZM78.6523 52.8395L78.9257 54.292L79.7461 54.05V54.292L79.4726 55.2604L78.1054 55.9867L77.8319 53.0816L78.1054 53.5658L78.6523 52.8395ZM87.6762 53.5658V54.292H87.4028L87.6762 53.5658ZM32.9859 54.05L33.2593 56.2288H32.9859V54.05ZM80.5665 54.1307C80.7779 54.1307 80.6103 54.2512 80.4753 54.2114L80.5665 54.1307ZM82.7541 55.0183H81.6603L81.3868 55.9867H81.1134L81.3868 55.2604L80.5665 54.5342L82.7541 55.0183ZM26.6965 56.2288V57.9235H26.1496L26.6965 56.2288ZM78.3788 56.4709L78.1054 58.4077H77.8319V56.4709H78.3788ZM50.7602 56.9551V57.1972L49.6664 58.4077L50.7602 58.1656L46.1115 62.7654L43.1036 63.0075C44.4151 61.0415 47.3722 59.6104 49.6664 58.6498L49.393 57.6814L46.6585 58.4077C47.7554 57.3275 49.1546 56.9856 50.7602 56.9551ZM52.6744 57.9235V58.6498L52.1275 57.9235L52.6744 57.9235ZM14.6646 58.1656L14.9381 59.8603H14.1177L14.6646 58.1656ZM20.1336 58.1656V59.8603H19.8602L19.5867 58.1656H20.1336ZM27.5168 58.1656L26.6965 58.8919V58.1656H27.5168ZM43.1036 59.3761L42.8301 60.3445H42.5567V59.3761H43.1036ZM32.1655 63.4917L32.9859 62.7654V62.5233H31.8921L29.7045 61.555V61.3129L32.439 60.3445L31.8921 60.1024C33.3147 59.4249 35.9854 60.254 35.0496 62.013C34.551 62.9502 33.195 63.2423 32.1655 63.4917ZM25.3292 59.8603V60.3445L24.7823 59.8603H25.3292ZM53.7682 60.3445L55.1355 67.1232H55.4089L55.1355 65.6706H55.4089L55.9558 69.0599H55.6824V67.3653L54.862 67.6074L55.1355 69.7862H54.862L54.0416 66.8811L53.7682 67.6074H53.4947C53.1118 65.7537 52.9425 62.0867 53.7682 60.3445ZM34.0797 60.5866L33.8062 61.555H34.9L34.0797 60.5866ZM35.9938 61.797C36.4272 63.2423 34.6688 66.4819 33.8062 67.8495H33.5328L34.9 63.2496L35.9938 63.0075V61.797ZM31.3452 62.2812V62.7654L30.7983 62.2812H31.3452ZM29.431 62.5233V63.0075L28.8841 62.5233H29.431ZM39.0018 63.3303C39.2133 63.3303 39.0456 63.4509 38.9107 63.411L39.0018 63.3303ZM31.6186 63.5724L31.7098 63.6531C31.5748 63.6929 31.4071 63.5724 31.6186 63.5724ZM36.2673 63.9759L35.1735 68.0916L34.3531 67.8495L36.2673 63.9759ZM32.7124 65.6706L31.3452 69.0599L32.1655 68.5758L32.439 68.8179C31.5223 69.2871 31.0191 68.8946 30.2514 68.3337V68.0916L32.7124 65.6706ZM36.2673 67.8495L35.9938 69.0599H35.7204L36.2673 67.8495ZM53.7682 67.8495L54.5886 70.0283L53.2213 67.8495H53.7682ZM33.5328 68.0916L32.7124 69.302L32.9859 68.0916H33.5328ZM34.9 69.7862L34.6266 70.7546H34.3531L34.9 69.7862ZM34.3531 73.1756V74.144H34.0797L34.3531 73.1756ZM56.5027 73.1756L57.0496 74.3861H56.7762L56.5027 73.1756ZM60.331 77.0491L59.7841 79.4701H59.5107L59.7841 77.0491H60.331ZM62.2452 81.1648L63.0656 82.6174H62.7921L62.2452 81.1648ZM62.2452 82.1332L62.5186 83.1016H62.2452V82.1332ZM61.4248 82.6174L61.6983 83.8279H61.4248V82.6174ZM63.0656 83.5858L63.339 85.0383H63.0656V83.5858ZM64.9797 88.6698H64.7063L63.339 85.7646C64.5195 84.661 64.9196 88.0181 64.9797 88.6698Z" fill="black"/>
</g>
<circle cx="45" cy="45" r="42.5" stroke="#FF0000" stroke-width="5"/>
<rect x="71" y="8" width="5" height="90" transform="rotate(38.8079 71 8)" fill="#FF0000"/>
<defs>
<clipPath id="clip0_79_217">
<rect width="91" height="65" fill="white" transform="translate(4 27)"/>
</clipPath>
</defs>
</svg>
